<?xml version="1.0" encoding="utf-8"?>
<!-- Generator: Adobe Illustrator 25.0.0, SVG Export Plug-In . SVG Version: 6.00 Build 0)  -->
<svg version="1.1" id="圖層_1" xmlns="http://www.w3.org/2000/svg" xmlns:xlink="http://www.w3.org/1999/xlink" x="0px" y="0px"
	 viewBox="0 0 1000 1000" style="enable-background:new 0 0 1000 1000;" xml:space="preserve">
<path d="M632.7,266.5c1.6,2.5,2.6,3.8,3.4,5.2c25.9,41.9,51.7,83.8,77.7,125.6c2.1,3.4,2.1,6.2,0.1,9.6
	c-86.1,147.5-172,295-258,442.5c-1,1.7-2.1,3.4-3.3,5.3c-53.9,0-107.8,0-162.8,0C404.1,658.7,518.1,463.1,632.7,266.5z"/>
<path d="M763,839.8c0-2.4,0-4.3,0-6.2c0-52.1,0-104.1,0-156.2c0-3.8,0.7-6.8,3.6-9.7c23.1-22.9,46.1-46,69.1-69c1-1,2.2-2,3.8-3.5
	c20.4,36.3,40.7,72.2,60.6,107.6C854.5,748.5,809.1,793.8,763,839.8z"/>
<path d="M658.3,597.6c2.2,2,3.6,3.2,4.9,4.5c22.9,22.9,45.7,45.8,68.6,68.6c3,2.9,4.3,5.9,4.2,10.1C736,730.9,736,781,736,831.2
	c0,1.8-0.2,3.6-0.3,5c-44.9-45-89.8-89.9-135.4-135.5C619.1,667.3,638.5,632.9,658.3,597.6z"/>
<path d="M514.3,853.3c24-42.6,47.6-84.6,70.9-125.9c42.1,42.2,84,84.1,125.6,125.7C707,854.1,525.6,854.5,514.3,853.3z"/>
<path d="M985,853.4c-65.5,0-129.9,0-193.9,0c41.2-41.2,82.4-82.5,124-124.1C938.1,770.1,961.3,811.4,985,853.4z"/>
<path d="M735.8,462.7c0,57.3,0,114.7,0,172.1c-4.2-2.1-55.4-52.6-63.3-62.4c20.6-36.6,41.3-73.4,62.1-110.2
	C735,462.4,735.4,462.5,735.8,462.7z"/>
<path d="M764.5,462.1c20.2,35.9,40.5,71.8,60.2,106.8c-20.8,20.8-41.2,41.2-61.3,61.4c0-55.2,0-111.4,0-167.6
	C763.8,462.5,764.2,462.3,764.5,462.1z"/>
<g>
	<path d="M111.5,681h222.6c15.2-26.1,30.4-52.2,45.6-78.3H157.1C141.9,628.9,126.7,655,111.5,681z"/>
	<path d="M199.2,530.6h222.6c15.2-26.1,30.4-52.2,45.6-78.3H244.8C229.6,478.4,214.4,504.5,199.2,530.6z"/>
	<path d="M11.1,853.5c75.1,0,148.7,0,222.3,0c1.6-2.6,3.1-5,4.5-7.3c18.1-31,36.1-62,54.2-93H69.5C50,786.6,30.6,820,11.1,853.5z"/>
	<path d="M590.1,228.7c-35.5-57.1-70.8-114.4-106.1-171.6c-1.2-1.9-2.5-3.8-4.7-7.1c-35,60-69.9,119.9-104.8,179.8h216.2
		C590.5,229.4,590.3,229.1,590.1,228.7z"/>
	<path d="M332.4,301.9c-15.2,26.1-30.4,52.2-45.6,78.3h222.7c15.2-26.1,30.4-52.2,45.7-78.3H332.4z"/>
</g>
</svg>
