<svg id="圖層_1" data-name="圖層 1" xmlns="http://www.w3.org/2000/svg" viewBox="0 0 943.48 591.49"><defs><style>.cls-1{fill:none;stroke:#fff;stroke-miterlimit:10;stroke-width:10px;}</style></defs><polygon class="cls-1" points="848.63 449.99 762.73 586.49 934.43 586.49 848.63 449.99"/><polygon class="cls-1" points="240.23 13.29 7.43 586.49 71.93 586.49 271.13 90.69 71.93 586.49 147.23 586.49 309.23 183.19 240.23 13.29"/><polygon class="cls-1" points="384.93 369.59 297.83 586.49 373.13 586.49 422.73 462.79 384.93 369.59"/><polygon class="cls-1" points="309.23 183.19 147.23 586.49 222.53 586.49 347.03 276.39 309.23 183.19"/><polygon class="cls-1" points="347.03 276.39 222.53 586.49 297.83 586.49 384.93 369.59 347.03 276.39"/><polygon class="cls-1" points="460.63 555.99 448.43 586.49 473.03 586.49 460.63 555.99"/><polygon class="cls-1" points="422.73 462.79 373.13 586.49 448.43 586.49 460.63 555.99 422.73 462.79"/><polygon class="cls-1" points="617.83 337.39 473.03 586.49 762.73 586.49 617.83 337.39"/><line class="cls-1" x1="617.23" y1="341.99" x2="617.23" y2="586.49"/><line class="cls-1" x1="522.43" y1="494.39" x2="617.23" y2="579.59"/><line class="cls-1" x1="547.13" y1="457.39" x2="619.23" y2="519.79"/><line class="cls-1" x1="573.23" y1="411.99" x2="617.23" y2="455.99"/><line class="cls-1" x1="621.33" y1="578.19" x2="704.53" y2="494.99"/><line class="cls-1" x1="617.23" y1="519.19" x2="683.13" y2="453.19"/><line class="cls-1" x1="617.23" y1="455.99" x2="662.53" y2="410.69"/><line class="cls-1" x1="797.13" y1="531.49" x2="897.33" y2="531.49"/><line class="cls-1" x1="812.23" y1="503.99" x2="882.23" y2="503.99"/><line class="cls-1" x1="779.23" y1="558.99" x2="913.83" y2="558.99"/></svg>