<svg id="圖層_1" data-name="圖層 1" xmlns="http://www.w3.org/2000/svg" viewBox="0 0 657.85 398.74"><defs><style>.cls-1{fill:#fff;}</style></defs><path class="cls-1" d="M355.8,357c.5,1.07.8,1.62,1,2.2q10.16,25,20.33,49.94a5.23,5.23,0,0,1,0,4.31q-57,141.73-114,283.5c-.33.81-.68,1.61-1.08,2.56H218.18Q287,528.33,355.8,357Z" transform="translate(-171.2 -300.91)"/><path class="cls-1" d="M333.13,300.91l4.28,10.53c4.07,10,8.11,20,12.22,29.95a4.71,4.71,0,0,1,.07,3.87q-54.06,134.4-108.06,268.83l-33.42,83.16c-.3.73-.62,1.46-1,2.27H171.2Z" transform="translate(-171.2 -300.91)"/><path class="cls-1" d="M383.7,425.32,391.26,444Q398,460.51,404.71,477a4.68,4.68,0,0,1,.08,3.86Q364.53,580.9,324.36,681l-7.47,18.55H273q55.17-137.25,110.22-274.15Z" transform="translate(-171.2 -300.91)"/><path class="cls-1" d="M371.71,699.55h-44l83.16-207c.52,1.14.87,1.85,1.16,2.58q10.06,24.73,20.16,49.48a5.55,5.55,0,0,1,0,4.55q-29.83,74.12-59.6,148.26C372.35,698.13,372,698.78,371.71,699.55Z" transform="translate(-171.2 -300.91)"/><path class="cls-1" d="M438.69,560.72c2.17,5.38,4.21,10.4,6.24,15.42,4.95,12.21,9.87,24.44,14.87,36.63a4.92,4.92,0,0,1,0,4.06q-16.15,40.11-32.23,80.25c-.32.81-.68,1.61-1,2.47H383.07C383.24,697.78,436.74,564.14,438.69,560.72Z" transform="translate(-171.2 -300.91)"/><path class="cls-1" d="M617.66,699.49l55-55,32,55Z" transform="translate(-171.2 -300.91)"/><path class="cls-1" d="M511.5,699.47c10.13-17.43,20.15-34.63,30.3-52.09l57.55,51.69a1.59,1.59,0,0,1-.12.35.24.24,0,0,1-.17.13q-43,.06-86.06.09C512.63,699.64,512.25,699.56,511.5,699.47Z" transform="translate(-171.2 -300.91)"/><path class="cls-1" d="M466.18,628.71c.38.84.75,1.62,1.07,2.41q10,24.61,20.07,49.22a5.14,5.14,0,0,1,.06,4.32c-1.82,4.25-3.48,8.58-5.21,12.87-.27.66-.58,1.3-.9,2H437.88C438,697.83,464.68,631,466.18,628.71Z" transform="translate(-171.2 -300.91)"/><path class="cls-1" d="M612.78,688.83c0-.62-.09-1.16-.09-1.69,0-9.2,0-18.39,0-27.58a3.79,3.79,0,0,1,1.14-3q20.4-20.3,40.74-40.67c.22-.22.48-.42,1-.86,4,6.61,7.74,13.23,11.45,19.59Z" transform="translate(-171.2 -300.91)"/><path class="cls-1" d="M547,638.48c3.83-6.58,7.52-12.93,11.34-19.48.73.6,1.35,1.07,1.94,1.58q20.29,17.58,40.61,35.14a4.58,4.58,0,0,1,1.78,3.87c-.08,8.63,0,17.26,0,25.89v2.3l-.49.22Q574.63,663.31,547,638.48Z" transform="translate(-171.2 -300.91)"/><path class="cls-1" d="M577.17,586.58c.74.69,1.22,1.11,1.66,1.56l22.39,22.36a3.71,3.71,0,0,1,1.42,2.85c-.06,9.59,0,19.17,0,28.76,0,.37-.05.74-.09,1.17-1.75-.82-35.82-30.08-38.89-33.39Z" transform="translate(-171.2 -300.91)"/><path class="cls-1" d="M612.69,642.93v-4.88c0-8,0-16,0-24a4.8,4.8,0,0,1,1.51-3.79c7.63-7.52,15.18-15.12,22.76-22.69.49-.49,1-.93,1.76-1.58q5.85,10.07,11.38,19.55Z" transform="translate(-171.2 -300.91)"/><path class="cls-1" d="M723.06,699.21a48.82,48.82,0,0,0,3.3-5.43c1.46-3.3,3.73-4.14,7.31-4.12,29,.17,57.9.12,86.86.05a4.09,4.09,0,0,1,4.18,2.34c1.32,2.44,2.92,4.74,4.34,7a2.31,2.31,0,0,1-.14.38.31.31,0,0,1-.19.11c-.56,0-1.11.1-1.67.1l-103.41-.07C723.52,699.58,723.4,699.43,723.06,699.21Z" transform="translate(-171.2 -300.91)"/><path class="cls-1" d="M816.84,679.64H735.42c.57-1,1-1.71,1.42-2.42,1.26-2,2.6-4,3.8-6.1a2.45,2.45,0,0,1,2.51-1.36c2.56.07,5.12,0,7.67,0,19.11,0,38.21,0,57.32,0,1.79,0,2.93.4,3.83,2C813.37,674.37,815.05,676.79,816.84,679.64Z" transform="translate(-171.2 -300.91)"/><path class="cls-1" d="M633.23,576.62l-20.17,20.15c-.48-1.43-.72-49.71-.14-55C619.91,553.65,626.58,565.19,633.23,576.62Z" transform="translate(-171.2 -300.91)"/><path class="cls-1" d="M582.46,577.48l19.65-33.75.4.17v52.9a.84.84,0,0,1-.21.11.41.41,0,0,1-.22,0A13.82,13.82,0,0,1,601,596Z" transform="translate(-171.2 -300.91)"/><path class="cls-1" d="M748,659.53c2-3.19,3.8-6.11,5.68-9a2.93,2.93,0,0,1,1.59-.79,5.67,5.67,0,0,1,1.43,0c13,0,25.9,0,38.85,0a3.94,3.94,0,0,1,4,2.27c1.4,2.49,3,4.86,4.68,7.56Z" transform="translate(-171.2 -300.91)"/><path class="cls-1" d="M760.56,639.49l15.52-24.66,15.51,24.66Z" transform="translate(-171.2 -300.91)"/><path class="cls-1" d="M495,699.54h-2.81l1.4-3.45Z" transform="translate(-171.2 -300.91)"/></svg>