<?xml version="1.0" encoding="utf-8"?>
<!-- Generator: Adobe Illustrator 25.0.0, SVG Export Plug-In . SVG Version: 6.00 Build 0)  -->
<svg version="1.1" id="圖層_1" xmlns="http://www.w3.org/2000/svg" xmlns:xlink="http://www.w3.org/1999/xlink" x="0px" y="0px"
	 viewBox="0 0 1000 1000" style="enable-background:new 0 0 1000 1000;" xml:space="preserve">
<path d="M355.8,357c0.5,1.1,0.8,1.6,1,2.2c6.8,16.7,13.5,33.3,20.3,49.9c0.6,1.5,0.6,2.8,0,4.3c-38,94.5-76,189-114,283.5
	c-0.3,0.8-0.7,1.6-1.1,2.6c-14.5,0-29,0-43.9,0C264,585.4,309.8,471.4,355.8,357z"/>
<path d="M333.1,300.9c1.6,3.9,2.9,7.2,4.3,10.5c4.1,10,8.1,20,12.2,30c0.6,1.3,0.6,2.5,0.1,3.9c-36,89.6-72,179.2-108.1,268.8
	c-11.1,27.7-22.3,55.4-33.4,83.2c-0.3,0.7-0.6,1.5-1,2.3c-11.9,0-23.8,0-36,0C225.2,566.7,279,434.1,333.1,300.9z"/>
<path d="M383.7,425.3c2.5,6.2,5,12.4,7.6,18.6c4.5,11,8.9,22.1,13.4,33.1c0.5,1.3,0.6,2.5,0.1,3.9C378,547.6,351.2,614.3,324.4,681
	c-2.5,6.1-4.9,12.3-7.5,18.6c-14.6,0-29.1,0-43.9,0c36.8-91.5,73.5-182.8,110.2-274.2C383.4,425.3,383.5,425.3,383.7,425.3z"/>
<path d="M371.7,699.5c-14.7,0-29.1,0-44,0c27.7-69,55.4-137.8,83.2-207c0.5,1.1,0.9,1.9,1.2,2.6c6.7,16.5,13.4,33,20.2,49.5
	c0.7,1.6,0.6,3,0,4.6c-19.9,49.4-39.7,98.8-59.6,148.3C372.3,698.1,372,698.8,371.7,699.5z"/>
<path d="M438.7,560.7c2.2,5.4,4.2,10.4,6.2,15.4c4.9,12.2,9.9,24.4,14.9,36.6c0.6,1.4,0.5,2.6,0,4.1c-10.8,26.7-21.5,53.5-32.2,80.2
	c-0.3,0.8-0.7,1.6-1,2.5c-14.5,0-29,0-43.4,0C383.2,697.8,436.7,564.1,438.7,560.7z"/>
<path d="M617.7,699.5c18.3-18.3,36.6-36.6,55-55c10.5,18.1,21.2,36.4,32,55C675.4,699.5,646.5,699.5,617.7,699.5z"/>
<path d="M511.5,699.5c10.1-17.4,20.1-34.6,30.3-52.1c19.3,17.4,38.5,34.6,57.5,51.7c-0.1,0.2-0.1,0.3-0.1,0.4c0,0.1-0.1,0.1-0.2,0.1
	c-28.7,0-57.4,0.1-86.1,0.1C512.6,699.6,512.3,699.6,511.5,699.5z"/>
<path d="M466.2,628.7c0.4,0.8,0.7,1.6,1.1,2.4c6.7,16.4,13.4,32.8,20.1,49.2c0.6,1.5,0.7,2.8,0.1,4.3c-1.8,4.3-3.5,8.6-5.2,12.9
	c-0.3,0.7-0.6,1.3-0.9,2c-14.5,0-28.9,0-43.4,0C438,697.8,464.7,631,466.2,628.7z"/>
<path d="M612.8,688.8c0-0.6-0.1-1.2-0.1-1.7c0-9.2,0-18.4,0-27.6c0-1.2,0.3-2.1,1.1-3c13.6-13.5,27.2-27.1,40.7-40.7
	c0.2-0.2,0.5-0.4,1-0.9c4,6.6,7.7,13.2,11.5,19.6C648.9,652.7,630.9,670.7,612.8,688.8z"/>
<path d="M547,638.5c3.8-6.6,7.5-12.9,11.3-19.5c0.7,0.6,1.4,1.1,1.9,1.6c13.5,11.7,27,23.5,40.6,35.1c1.3,1.1,1.8,2.2,1.8,3.9
	c-0.1,8.6,0,17.3,0,25.9c0,0.8,0,1.5,0,2.3c-0.2,0.1-0.3,0.1-0.5,0.2C583.8,671.5,565.5,655.1,547,638.5z"/>
<path d="M577.2,586.6c0.7,0.7,1.2,1.1,1.7,1.6c7.5,7.5,14.9,14.9,22.4,22.4c0.8,0.8,1.4,1.6,1.4,2.8c-0.1,9.6,0,19.2,0,28.8
	c0,0.4-0.1,0.7-0.1,1.2c-1.8-0.8-35.8-30.1-38.9-33.4C568.1,602.3,572.5,594.6,577.2,586.6z"/>
<path d="M612.7,642.9c0-1.7,0-3.3,0-4.9c0-8,0-16,0-24c0-1.5,0.4-2.7,1.5-3.8c7.6-7.5,15.2-15.1,22.8-22.7c0.5-0.5,1-0.9,1.8-1.6
	c3.9,6.7,7.7,13.2,11.4,19.5C637.6,618,625.2,630.4,612.7,642.9z"/>
<path d="M723.1,699.2c1.1-1.8,2.4-3.5,3.3-5.4c1.5-3.3,3.7-4.1,7.3-4.1c29,0.2,57.9,0.1,86.9,0c2,0,3.2,0.6,4.2,2.3
	c1.3,2.4,2.9,4.7,4.3,7c-0.1,0.2-0.1,0.3-0.1,0.4c0,0.1-0.1,0.1-0.2,0.1c-0.6,0-1.1,0.1-1.7,0.1c-34.5,0-68.9,0-103.4-0.1
	C723.5,699.6,723.4,699.4,723.1,699.2z"/>
<path d="M816.8,679.6c-27.4,0-54.2,0-81.4,0c0.6-1,1-1.7,1.4-2.4c1.3-2,2.6-4,3.8-6.1c0.6-1,1.3-1.4,2.5-1.4c2.6,0.1,5.1,0,7.7,0
	c19.1,0,38.2,0,57.3,0c1.8,0,2.9,0.4,3.8,2.1C813.4,674.4,815.1,676.8,816.8,679.6z"/>
<path d="M633.2,576.6c-6.9,6.9-13.6,13.6-20.2,20.2c-0.5-1.4-0.7-49.7-0.1-55C619.9,553.7,626.6,565.2,633.2,576.6z"/>
<path d="M582.5,577.5c6.6-11.3,13.1-22.5,19.6-33.8c0.1,0.1,0.3,0.1,0.4,0.2c0,17.6,0,35.3,0,52.9c-0.1,0-0.1,0.1-0.2,0.1
	c-0.1,0-0.2,0-0.2,0c-0.4-0.3-0.8-0.6-1.1-0.9C594.8,589.8,588.7,583.7,582.5,577.5z"/>
<path d="M748,659.5c2-3.2,3.8-6.1,5.7-9c0.3-0.4,1-0.6,1.6-0.8c0.4-0.1,1,0,1.4,0c13,0,25.9,0,38.9-0.1c2,0,3.1,0.6,4,2.3
	c1.4,2.5,3,4.9,4.7,7.6C785.4,659.5,766.9,659.5,748,659.5z"/>
<path d="M760.6,639.5c5.3-8.4,10.3-16.4,15.5-24.7c5.2,8.3,10.3,16.3,15.5,24.7C781.1,639.5,771,639.5,760.6,639.5z"/>
<path d="M495,699.5c-1.1,0-1.8,0-2.8,0c0.4-1.1,0.8-2,1.4-3.5C494.2,697.5,494.6,698.4,495,699.5z"/>
</svg>
