<?xml version="1.0" encoding="utf-8"?>
<!-- Generator: Adobe Illustrator 25.0.0, SVG Export Plug-In . SVG Version: 6.00 Build 0)  -->
<svg version="1.1" id="圖層_1" xmlns="http://www.w3.org/2000/svg" xmlns:xlink="http://www.w3.org/1999/xlink" x="0px" y="0px"
	 viewBox="0 0 1000 1000" style="enable-background:new 0 0 1000 1000;" xml:space="preserve">
<path d="M243.8,186c9.8,24,19.5,48.1,29.4,72.1c1.1,2.8,1.2,5.1,0.1,7.9c-26.5,68.6-52.8,137.3-79.2,205.9
	c-37.3,97.1-74.6,194.1-111.9,291.2c-0.5,1.2-1,2.4-1.5,3.8c-25.6,0-50.7,0-75.7,0"/>
<path d="M5.1,764.5C84,570.7,162.9,376.8,242.1,182.3"/>
<path d="M291.4,303.4c0.8,1.9,1.3,3,1.8,4.1c13.4,33,26.9,66,40.4,99c1.1,2.6,1.1,4.9,0.1,7.6c-44.7,116.2-89.4,232.4-134,348.7
	c-0.5,1.3-1.1,2.7-1.7,4.2c-28,0-56,0-84.6,0C172.6,612.4,231.9,458.3,291.4,303.4z"/>
<path d="M351.6,451.5c0.8,1.8,1.3,2.7,1.7,3.7c13.6,33.3,27.1,66.7,40.7,100c0.9,2.2,0.9,4,0.1,6.2c-26,67.5-51.9,135-77.8,202.5
	c-0.4,1-0.8,2-1.3,3.1c-28,0-56,0-84.5,0C270.9,661.8,311.1,557,351.6,451.5z"/>
<path d="M412.1,599.6c22.8,56.1,45.4,111.5,68.1,167.3c-44.3,0-88.1,0-131.9,0C348.5,763.8,405.8,613.5,412.1,599.6z"/>
<path d="M671,755.3c0-1.4,0-2.4,0-3.5c0-29.4,0-58.7,0-88.1c0-2.1,0.4-3.8,2-5.5c13.1-12.9,26-25.9,39-38.9c0.6-0.6,1.2-1.1,2.2-2
	c11.5,20.5,23,40.7,34.2,60.7C722.6,703.8,697,729.3,671,755.3z"/>
<path d="M612,618.7c1.2,1.1,2,1.8,2.8,2.6c12.9,12.9,25.8,25.8,38.7,38.7c1.7,1.7,2.4,3.3,2.4,5.7c-0.1,28.3,0,56.5-0.1,84.8
	c0,1-0.1,2.1-0.2,2.8c-25.3-25.3-50.7-50.7-76.4-76.4C589.8,658,600.8,638.6,612,618.7z"/>
<path d="M530.7,762.9c13.5-24,26.9-47.7,40-71c23.8,23.8,47.4,47.4,70.9,70.9C639.4,763.3,537.1,763.6,530.7,762.9z"/>
<path d="M796.2,762.9c-36.9,0-73.3,0-109.3,0c23.2-23.2,46.5-46.5,69.9-70C769.7,716,782.8,739.2,796.2,762.9z"/>
<path d="M996.7,763c-55.7,0-110.9,0-166.4,0c0.5-1.1,0.8-2,1.3-2.8c3.5-6.2,7.2-12.3,10.6-18.6c1.3-2.4,2.8-3.3,5.6-3.3
	c28.1,0.1,56.3,0.1,84.4,0.1c15.7,0,31.4,0,47.1-0.1c2.3,0,3.7,0.6,4.9,2.7c3.5,6.5,7.3,12.8,11,19.2C995.6,761,996,761.7,996.7,763
	z"/>
<path d="M853.1,723c2.3-4.1,4.4-7.6,6.4-11.2c2.9-5,5.8-10,8.7-15.1c0.9-1.6,1.9-2.1,3.7-2.1c27.6,0.1,55.3,0,82.9,0
	c1.5,0,2.7,0.1,3.6,1.7c4.7,8.4,9.6,16.8,14.4,25.1c0.2,0.4,0.3,0.8,0.5,1.5C933.3,723,893.5,723,853.1,723z"/>
<path d="M913.6,618.7c11.7,20.2,23.2,40.1,34.7,60.1c-3,0.9-59.9,1.2-69.1,0.5C879.5,676.8,907.6,627.1,913.6,618.7z"/>
<path d="M655.7,542.6c0,32.3,0,64.7,0,97.1c-2.4-1.2-31.3-29.7-35.7-35.2c11.6-20.6,23.3-41.4,35-62.1
	C655.2,542.4,655.4,542.5,655.7,542.6z"/>
<path d="M671.9,542.3c11.4,20.2,22.8,40.5,33.9,60.2c-11.7,11.7-23.2,23.2-34.6,34.6c0-31.2,0-62.8,0-94.5
	C671.4,542.5,671.7,542.4,671.9,542.3z"/>
</svg>
