<svg id="圖層_1" data-name="圖層 1" xmlns="http://www.w3.org/2000/svg" viewBox="0 0 968.93 571.28"><defs><style>.cls-1{fill:#fff;}</style></defs><path class="cls-1" d="M249.35,192.45c9.57,23.5,19.08,47,28.74,70.48a9.55,9.55,0,0,1,.13,7.73q-38.76,100.57-77.38,201.22L91.55,756.39c-.46,1.2-1,2.39-1.49,3.72h-74" transform="translate(-16.07 -188.83)"/><path class="cls-1" d="M16.19,757.7q115.62-284.12,231.5-568.87" transform="translate(-16.07 -188.83)"/><path class="cls-1" d="M295.89,307.1c.83,1.9,1.31,2.95,1.75,4q19.69,48.35,39.44,96.69a9.18,9.18,0,0,1,.07,7.39Q271.62,585.52,206.21,755.88c-.51,1.31-1.06,2.61-1.66,4.11H121.93C179.87,609.1,237.75,458.49,295.89,307.1Z" transform="translate(-16.07 -188.83)"/><path class="cls-1" d="M354.74,451.85c.79,1.72,1.26,2.64,1.65,3.6q19.89,48.84,39.79,97.67a7.46,7.46,0,0,1,.07,6q-38.07,98.91-76,197.86c-.38,1-.83,1.93-1.29,3H236.36Z" transform="translate(-16.07 -188.83)"/><path class="cls-1" d="M413.82,596.54c22.31,54.82,44.33,108.93,66.52,163.44H351.47C351.68,757,407.68,610.11,413.82,596.54Z" transform="translate(-16.07 -188.83)"/><path class="cls-1" d="M666.8,748.64v-3.4q0-43,0-86a6.72,6.72,0,0,1,2-5.33c12.76-12.61,25.4-25.34,38.09-38,.57-.58,1.2-1.1,2.12-1.93q16.89,30,33.41,59.28Z" transform="translate(-16.07 -188.83)"/><path class="cls-1" d="M609.1,615.22c1.18,1.08,2,1.75,2.71,2.49q18.9,18.88,37.83,37.77A7.14,7.14,0,0,1,652,661c-.08,27.62-.05,55.24-.06,82.86,0,1-.12,2-.16,2.74C627,721.86,602.27,697.11,577.13,672Z" transform="translate(-16.07 -188.83)"/><path class="cls-1" d="M529.74,756.07l39.09-69.37L638.06,756C635.91,756.52,536,756.78,529.74,756.07Z" transform="translate(-16.07 -188.83)"/><path class="cls-1" d="M789.11,756.14H682.28q34.05-34.08,68.32-68.35Z" transform="translate(-16.07 -188.83)"/><path class="cls-1" d="M985,756.22H822.43c.51-1.1.83-1.94,1.27-2.72,3.46-6,7.06-12,10.36-18.14,1.28-2.38,2.74-3.24,5.51-3.23,27.5.12,55,.07,82.49.07,15.35,0,30.69,0,46-.05,2.27,0,3.63.55,4.77,2.64,3.44,6.33,7.14,12.51,10.73,18.75C984,754.23,984.34,755,985,756.22Z" transform="translate(-16.07 -188.83)"/><path class="cls-1" d="M844.69,717.14c2.29-4,4.27-7.46,6.26-10.92,2.83-4.9,5.71-9.78,8.46-14.73a3.62,3.62,0,0,1,3.65-2.08q40.52.08,81,0c1.46,0,2.64.09,3.52,1.66,4.62,8.23,9.38,16.37,14.08,24.56a7.73,7.73,0,0,1,.45,1.49Z" transform="translate(-16.07 -188.83)"/><path class="cls-1" d="M903.78,615.21C915.17,635,926.4,654.43,937.68,674c-3,.84-58.56,1.16-67.56.48C870.47,672,898,623.42,903.78,615.21Z" transform="translate(-16.07 -188.83)"/><path class="cls-1" d="M651.81,540.87v94.84c-2.3-1.15-30.54-29-34.88-34.38l34.2-60.7Z" transform="translate(-16.07 -188.83)"/><path class="cls-1" d="M667.64,540.56l33.16,58.83L667,633.2V540.87Z" transform="translate(-16.07 -188.83)"/></svg>