<?xml version="1.0" encoding="utf-8"?>
<!-- Generator: Adobe Illustrator 25.0.0, SVG Export Plug-In . SVG Version: 6.00 Build 0)  -->
<svg version="1.1" id="圖層_1" xmlns="http://www.w3.org/2000/svg" xmlns:xlink="http://www.w3.org/1999/xlink" x="0px" y="0px"
	 viewBox="0 0 973.9 804.7" style="enable-background:new 0 0 973.9 804.7;" xml:space="preserve">
<style type="text/css">
	.st0{fill:#292421;}
</style>
<path class="st0" d="M621.6,216.5c1.6,2.5,2.6,3.8,3.4,5.2c25.9,41.9,51.8,83.7,77.7,125.6c2.1,3.4,2.1,6.2,0.1,9.6
	c-86.1,147.5-172.1,295-257.9,442.5c-1,1.7-2.1,3.4-3.3,5.3H278.8C393,608.7,507.2,412.6,621.6,216.5z"/>
<path class="st0" d="M751.9,789.8v-6.2c0-52.1,0-104.1,0-156.2c0-3.8,0.7-6.8,3.6-9.7c23.2-22.9,46.1-46,69.1-69c1-1,2.2-2,3.8-3.5
	L889,652.8L751.9,789.8z"/>
<path class="st0" d="M647.2,547.6c2.2,2,3.6,3.2,4.9,4.5c22.9,22.9,45.8,45.7,68.6,68.5c2.8,2.6,4.4,6.2,4.2,10.1
	c-0.1,50.1-0.2,100.3-0.1,150.4c0,1.8-0.2,3.6-0.3,5L589.2,650.6L647.2,547.6z"/>
<path class="st0" d="M503.2,803.3c24-42.7,47.7-84.6,71-125.9l125.6,125.7C695.9,804.1,514.5,804.5,503.2,803.3z"/>
<path class="st0" d="M973.9,803.4H780l124-124L973.9,803.4z"/>
<path class="st0" d="M724.8,412.7v172.1c-4.2-2.1-55.4-52.6-63.3-62.4l62.1-110.2L724.8,412.7z"/>
<path class="st0" d="M753.5,412.1l60.2,106.8l-61.3,61.4V412.7L753.5,412.1z"/>
<path class="st0" d="M100.4,631H323c15.2-26.1,30.4-52.2,45.6-78.3H146.1L100.4,631z"/>
<path class="st0" d="M188.1,480.6h222.6c15.2-26.1,30.4-52.2,45.6-78.3H233.7L188.1,480.6z"/>
<path class="st0" d="M0,803.5h222.3c1.6-2.7,3.1-5,4.5-7.3l54.2-93H58.4L0,803.5z"/>
<path class="st0" d="M579,178.7C543.5,121.6,508.1,64.4,472.9,7.1c-1.2-1.9-2.5-3.8-4.7-7.1L363.4,179.8h216.2
	C579.4,179.4,579.2,179.1,579,178.7z"/>
<path class="st0" d="M321.4,251.9c-15.2,26.1-30.4,52.2-45.6,78.3h222.7c15.2-26.1,30.4-52.2,45.7-78.3L321.4,251.9L321.4,251.9z"/>
</svg>
