<?xml version="1.0" encoding="utf-8"?>
<!-- Generator: Adobe Illustrator 25.0.0, SVG Export Plug-In . SVG Version: 6.00 Build 0)  -->
<svg version="1.1" id="圖層_1" xmlns="http://www.w3.org/2000/svg" xmlns:xlink="http://www.w3.org/1999/xlink" x="0px" y="0px"
	 viewBox="0 0 1000 1000" style="enable-background:new 0 0 1000 1000;" xml:space="preserve">
<style type="text/css">
	.st0{fill:none;stroke:#000000;stroke-width:10;stroke-miterlimit:10;}
</style>
<g>
	<g>
		<polygon class="st0" points="878.2,614.7 792.3,751.2 964,751.2 		"/>
		<g>
			<polygon class="st0" points="269.8,178 37,751.2 101.5,751.2 300.7,255.4 101.5,751.2 176.8,751.2 338.8,347.9 			"/>
			<polygon class="st0" points="414.5,534.3 327.4,751.2 402.7,751.2 452.3,627.5 			"/>
			<polygon class="st0" points="338.8,347.9 176.8,751.2 252.1,751.2 376.6,441.1 			"/>
			<polygon class="st0" points="376.6,441.1 252.1,751.2 327.4,751.2 414.5,534.3 			"/>
			<polygon class="st0" points="490.2,720.7 478,751.2 502.6,751.2 			"/>
			<polygon class="st0" points="452.3,627.5 402.7,751.2 478,751.2 490.2,720.7 			"/>
			<polygon class="st0" points="647.4,502.1 502.6,751.2 792.3,751.2 			"/>
		</g>
		<line class="st0" x1="646.8" y1="506.7" x2="646.8" y2="751.2"/>
		<line class="st0" x1="552" y1="659.1" x2="646.8" y2="744.3"/>
		<line class="st0" x1="576.7" y1="622.1" x2="648.8" y2="684.5"/>
		<line class="st0" x1="602.8" y1="576.7" x2="646.8" y2="620.7"/>
	</g>
	<line class="st0" x1="650.9" y1="742.9" x2="734.1" y2="659.7"/>
	<line class="st0" x1="646.8" y1="683.9" x2="712.7" y2="617.9"/>
	<line class="st0" x1="646.8" y1="620.7" x2="692.1" y2="575.4"/>
	<line class="st0" x1="826.7" y1="696.2" x2="926.9" y2="696.2"/>
	<line class="st0" x1="841.8" y1="668.7" x2="911.8" y2="668.7"/>
	<line class="st0" x1="808.8" y1="723.7" x2="943.4" y2="723.7"/>
</g>
</svg>
