<svg id="圖層_1" data-name="圖層 1" xmlns="http://www.w3.org/2000/svg" viewBox="0 0 973.92 804.7"><defs><style>.cls-1{fill:#fff;}</style></defs><path class="cls-1" d="M632.65,266.46c1.62,2.46,2.58,3.83,3.44,5.23q38.82,62.81,77.71,125.59c2.08,3.36,2.12,6.19.13,9.6Q584.81,628.09,456,849.36c-1,1.71-2.07,3.4-3.26,5.34H289.91Q461.14,560.72,632.65,266.46Z" transform="translate(-11.08 -50)"/><path class="cls-1" d="M763,839.78v-6.17q0-78.09,0-156.17c0-3.81.67-6.78,3.61-9.69,23.15-22.89,46.1-46,69.12-69,1-1,2.18-2,3.84-3.49l60.64,107.58Z" transform="translate(-11.08 -50)"/><path class="cls-1" d="M658.3,597.62c2.15,2,3.6,3.19,4.93,4.53q34.31,34.29,68.64,68.55a12.92,12.92,0,0,1,4.25,10.07q-.2,75.19-.1,150.38c0,1.82-.21,3.64-.3,5L600.29,700.62Z" transform="translate(-11.08 -50)"/><path class="cls-1" d="M514.27,853.26q36-64,71-125.9l125.64,125.7C707,854.07,525.59,854.54,514.27,853.26Z" transform="translate(-11.08 -50)"/><path class="cls-1" d="M985,853.38H791.12l124-124Z" transform="translate(-11.08 -50)"/><path class="cls-1" d="M735.83,462.69V634.82c-4.18-2.09-55.44-52.61-63.32-62.4l62.07-110.16Z" transform="translate(-11.08 -50)"/><path class="cls-1" d="M764.54,462.13,824.73,568.9l-61.34,61.36V462.69Z" transform="translate(-11.08 -50)"/><path class="cls-1" d="M111.53,681H334.12q22.8-39.13,45.62-78.27H157.13Z" transform="translate(-11.08 -50)"/><path class="cls-1" d="M199.18,530.62H421.8q22.8-39.14,45.63-78.27H244.78Z" transform="translate(-11.08 -50)"/><path class="cls-1" d="M11.08,853.48H233.42c1.63-2.65,3.1-5,4.46-7.29l54.19-93H69.5Z" transform="translate(-11.08 -50)"/><path class="cls-1" d="M590.07,228.69Q536.79,143,483.93,57.14c-1.18-1.91-2.48-3.78-4.69-7.14L374.49,229.77H590.67C590.48,229.41,590.3,229.06,590.07,228.69Z" transform="translate(-11.08 -50)"/><path class="cls-1" d="M332.44,301.93q-22.81,39.13-45.61,78.27H509.51q22.82-39.13,45.66-78.27Z" transform="translate(-11.08 -50)"/></svg>