<svg id="__1" data-name="_1" xmlns="http://www.w3.org/2000/svg" xmlns:xlink="http://www.w3.org/1999/xlink" viewBox="0 0 555.9 296.85"><defs><style>.cls-1{fill:#a9b29e;}.cls-2{clip-path:url(#clip-path);}.cls-3{fill:#70bfcc;}.cls-4{fill:#fff;}.cls-5{fill:#3d3035;}.cls-6{fill:#f7f4d9;}</style><clipPath id="clip-path" transform="translate(-21.91 -190.92)"><polygon class="cls-1" points="573.11 468.46 26.61 468.46 88.06 205.9 511.67 205.9 573.11 468.46"/></clipPath></defs><polygon class="cls-1" points="551.2 277.54 4.7 277.54 66.14 14.98 489.76 14.98 551.2 277.54"/><g class="cls-2"><path class="cls-3" d="M542.42,263c-2.34,3.73-12.26,6.78-16.21,8.71-8.55,4.14-17,8.36-25.7,12.27-24.33,11-50.39,18.41-77,20.29-51,3.58-90.4-30.7-138-42.23-41.47-10-77.73-2.44-115.37,16.36-21.6,10.79-42.26,23.62-63.44,35.2-19.8,10.82-44.9,26-68.23,24.23-12-.91-11.91,17.73,0,18.62,18.41,1.42,36.76-6.48,53.1-14.3,24.41-11.69,47.77-25.39,71.32-38.7s48.12-25.11,75.4-27.86c27.55-2.79,59,6.77,83.46,18.76,19.73,9.67,39.1,20.12,60.56,25.32,22.72,5.51,46.72,3.73,69.44-.35,24.42-4.39,47.78-14.23,70.1-24.75,11.23-5.28,29.75-11.15,36.71-22.16C565,262.18,548.82,252.85,542.42,263Z" transform="translate(-21.91 -190.92)"/><path class="cls-4" d="M553,338.38l-1.3-14.83c-26.41,2.31-47.17,7.22-63.44,13.13-.32-8.63.33-17.23,5-25.86a5.34,5.34,0,0,0,.17-5c.21-4.83-2.66-9.95-4.45-14.26-3.75-9.22-6.38-17.91-6.57-28.06a70.46,70.46,0,0,1,5-26.48c2.4,1.09,4.82,2.23,7.2,3.46,11.34,5.87,39.1,22.68,41.13,36.87.67,4.75,7.85,2.73,7.18-2-1.61-11.25-17.3-21.88-25.26-28.3a126.79,126.79,0,0,0-27.34-16.83,91.6,91.6,0,0,1,22.54-30c5.49-4.69-2.45-12.55-7.9-7.9a94.29,94.29,0,0,0-24.57,33.87c-3-1.08-6.05-2.1-9.18-3-41.8-12-83.78,15.29-126.16,3.57.69-7.36,1.51-14.95,2.43-22.34,1.59-.38,2.85-.63,3.71-.76l-.55-5.55v-5.58c-3.27,0-31.59,6.6-56.37,23.84-11.38-3.49-32.62.85-40.17,1.39-22.74,1.64-49.44,8.57-72.33,3.2l10-23.66L178,191.51l-10.37,24.54c-16.24-4.71-39.12,10.21-50.33,20-9.89,8.67-13.93,21.74-19.11,33.38-7.66,17.24-28,34.41-48,31.74-4.72-.63-4.66,6.82,0,7.46,9,1.18,18.15-1.3,26.45-5.82.81,8.81,2.78,17.41,3.79,26.24,1.15,10.31.18,21.37-.44,31.71-.21,3.63,4,4.48,6.2,2.61A227.75,227.75,0,0,1,130,356.62c0,15-.34,28.91-1.43,35.1-2.39,13.24-19.9,63-28.84,87.52l14,5.1c.57-1.55,7.85-21.54,15.08-42.72l.42,1.42,42.2-11.8,1.37-.54c6.11-3.12,12.37-6.25,18.67-9.34,10.89,14.08,34.41,10.66,50.39,8.34,14.14-2.07,27.89-6.06,42.07-7.69s28.18-2.62,42.3-3.19c7-.28,14.07-.23,21.11-.15,2.64,0,9.5-.61,14.6-.27-.71,33.68-1.33,62-1.35,62.64l11.16.26c.07-2.11.42-18.73.91-41,8,1.27,16.85-4,23.6-7.57l3-1.61c-.06,10.28,1.06,20.48,4.67,29.84-6.89,5.9-13.8,11.7-20.62,17.47-5.49,4.67,2.45,12.53,7.92,7.91,24.66-20.94,49.39-42.12,69.85-67.32,11.15-13.73,20.35-28.74,25.92-45.56,2.37-7.1,2.55-14.15,2.24-21.2C504.74,346.15,525.5,340.8,553,338.38ZM421.23,348.6c-.05-.2-.09-.4-.13-.6,9.85,1.11,18.1,6.73,27.09,10.65a74.16,74.16,0,0,0-12.3,12.76c-6.66.18-14.81.37-23.82.56a74,74,0,0,1,7.1-19.23A3.6,3.6,0,0,0,421.23,348.6Zm33.88,4.8c-12.33-4.08-22.21-12.22-35.43-13-.9-5.11-1.68-10.24-2.51-15.35,8.38,1.72,17.3,1.26,25.74,4,10.31,3.42,21,7.58,30,13.95A129.72,129.72,0,0,0,455.11,353.4Zm-1.54-125.24a89.94,89.94,0,0,1,24,5,117.27,117.27,0,0,0-5.2,18.64c-1.91,9.9-1.24,19.54.9,29.3a19.6,19.6,0,0,0,.8,2.67c-6.58-.33-13.37,2-20,2.49C450.64,267,449.84,247.38,453.57,228.16Zm-12.21.24c1.57-.17,3.12-.21,4.67-.28-3.81,21.07-2.61,42.51,1.56,63.5.53,2.83,3.35,3.2,5.31,2.06,8.21-.31,17.14-4.34,25-1.59,2.36,4.84,4.65,9.73,4.29,14.05a7.76,7.76,0,0,0,.12,1.64,63.87,63.87,0,0,0-6.15,28.53c-7.23-4.8-15.21-8.19-23.5-11.34-6.95-2.61-13.52-5-20.85-6.38-5.18-.95-11-.19-16.08-1.56-2-9.84-4.72-19.62-3.15-29.76.68-4.7-6.48-6.72-7.21-2-1.49,9.85.13,19.16,2.13,28.83,2.3,11.14,3.75,22.4,6,33.53a74.85,74.85,0,0,0-8.76,24.46c-9.68.2-20.07.39-30.63.56.71-34.24,1.34-64.07,1.34-67.15,0-8.09-10.16-15.74-24.53-25.66-2.47-1.7-4.7-3.24-6.42-4.53-2-4.15-1.71-21.07-.12-41C376.94,242.92,408.68,231.82,441.36,228.4ZM337.25,283.88c1.89,1.45,4.47,3.22,7.3,5.19,5.63,3.88,18.81,13,19.72,16.46,0,1.92-.26,15-.66,33.16-4.44,0-8.94-.62-13.37-.83-6-14.77-14.38-25.85-30.33-30.78-22-6.78-50,2.51-70.12,11.55-14.56.42-28.91,3.12-43.38,4.32,28.57-44.05,63-62.46,63.6-62.73l1.74-.91.8-1.81c12-27.14,43.5-42.63,63.18-49.52C330.17,253.29,330.68,278.81,337.25,283.88Zm-84.69-58.52c4.25-.32,8.5-.61,12.78-.86,2.24-.13,12.67-1.42,20.34-1.54a92.62,92.62,0,0,0-16.28,17.57,68.89,68.89,0,0,0-16.84-.35Zm-14.42,1.22c2.33-.22,4.63-.39,7-.6v15.15c-3.59.57-7.14,1.25-10.75,2-1.26.24-2.47.43-3.69.65-.27-5.42-.82-10.81-1-16.23C232.51,227.18,235.36,226.85,238.14,226.58Zm-15.89,1.75c.22,5.56.81,11.08,1,16.65a197.32,197.32,0,0,1-52.23,1.2l7.8-18.4C192.83,231.1,207.68,229.94,222.25,228.33Zm-99.64,13c7.57-8.08,29.09-20.85,42.06-18.29l-27.42,64.7c-12.22-.38-29.82,3.72-35.43-7.67a2.59,2.59,0,0,0-.32-.42C109.4,267.07,111.94,252.66,122.61,241.32Zm-34.91,114c.41-8.75.54-17.54.19-26.29-.44-10.22-3.73-20.11-4.17-30.37,0-.11-.07-.19-.07-.3a72.16,72.16,0,0,0,13.12-12.27c8,12,24.26,8,37.5,8.61L129,307.24l.06,1.66c.31,8.68.75,24.57.9,40.36A234.32,234.32,0,0,0,87.7,355.35Zm55.47,39c3-16.59,1.17-73.58.8-84.33L168,253.3a199.14,199.14,0,0,0,45,1c11.14-1.06,22.33-4.34,33.56-6.07a3.91,3.91,0,0,0,5.13-.67,65.46,65.46,0,0,1,13.35-.12c-.68,1.25-1.32,2.51-2,3.8-12.84,7.22-87.82,54-103,167.68l-26.23,7.34C138.38,412.71,142.09,400.48,143.17,394.34Zm28.9,20c5.36-34.09,16.54-61.66,29.51-83.59,16.64-.95,33-4.43,49.72-4.74a3.47,3.47,0,0,0,2.49-1.06c32-14.26,75-22.58,90.13,16.95a3.74,3.74,0,0,0,1.18,1.59,3.36,3.36,0,0,0,3,1.76c5.07.05,10.25.85,15.38.91-.19,8.26-.38,17.31-.59,26.69-37.17.5-73.26.57-81.16-.79C264.19,369,199.53,400.42,172.07,414.33Zm154.11-2.95c-18.19.43-37,1.57-54.94,4.92-15.9,3-59.35,17.8-73.19,1.85,36.87-17.7,73.4-32.71,81.16-31.42,9.22,1.59,46.74,1.53,83.38,1-.17,7.51-.34,15.08-.5,22.47C350.69,408.7,334,411.18,326.18,411.38ZM399.44,423c-9.39,6.32-19.93,12.64-26.67,9.82.31-14,.65-29.74,1-45.22,10.15-.16,20-.34,28.89-.53-.55,5.59-1,11.27-1.6,17C400.42,410.19,399.77,416.57,399.44,423Zm10.45,32.75c-2.87-9.3-3.27-19.19-2.95-29,14.24-8.22,28.54-16.5,45.21-14.35C439.87,428.28,425.18,442.39,409.89,455.75Zm47.29-50c-14.82-3.09-28.79,1.48-42.66,7.68a52.21,52.21,0,0,0-7.1,4.18c.06-1.4.17-2.79.27-4.16.59-8.66.94-17.64,1.91-26.52,15.25-.33,26.8-.63,30.58-.73l4.32-.19,2.08-3.77c.1-.21,7.16-12.54,30-24.28C475.4,375.74,468.51,389.73,457.18,405.75Z" transform="translate(-21.91 -190.92)"/><path class="cls-5" d="M308.87,193.65c-19.49,15.79-37.69,31.76-50.62,53.52-12.55,21.1-26.75,47.89-29.87,72.55-6.7,53,4.19,106.43,1.8,159.59-.19,4.8,7.25,4.78,7.46,0,2.08-46.48-4.63-92.8-3.56-139.35,1.3-56.66,37.81-106.83,80.07-141C317.88,195.89,312.58,190.66,308.87,193.65Z" transform="translate(-21.91 -190.92)"/></g><path class="cls-6" d="M577.81,472.17H21.91l63.19-270H514.62l63.19,270ZM31.3,464.73H568.43L508.72,209.62H91L31.3,464.73Z" transform="translate(-21.91 -190.92)"/></svg>