<svg xmlns="http://www.w3.org/2000/svg" viewBox="0 0 361.56 101.81"><defs><style>.cls-1{fill:snow;}</style></defs><g id="圖層_2" data-name="圖層 2"><g id="圖層_1-2" data-name="圖層 1"><g id="圖層_2-2" data-name="圖層 2"><g id="圖層_1-2-2" data-name="圖層 1-2"><g id="圖層_2-2-2" data-name="圖層 2-2"><g id="圖層_1-2-2-2" data-name="圖層 1-2-2"><path class="cls-1" d="M167,5.35a4.35,4.35,0,0,1-2.2,1v36.9c0,.35-1.35,1-2.25,1h-.4V38.8H128v5.4c0,.4-1,1.1-2.15,1.1h-.5V2.8l2.9,1.5h33.41l1.65-1.9ZM162.14,37.3V28.45a29.66,29.66,0,0,1-5.65.3h-4c-3.15,0-3.75-.8-3.75-2.85V5.8h-7.51C141,17.4,140.43,26,130.33,32l-.7-.85c8.5-6,8.8-14.45,8.9-25.3H128V37.3ZM151.39,5.8V25.3c0,.75.2,1.05,1.65,1.05h3.65c1.5,0,2.9-.05,3.45-.05a4,4,0,0,1,.7-.05,6.81,6.81,0,0,0,1-.2h.35V5.8Z"/><path class="cls-1" d="M209.18,5.6a3.74,3.74,0,0,1-2.15,1V38.2c0,.35-1.3,1-2.2,1h-.4V36h-7.8v4.4a2.43,2.43,0,0,1-2.2,1H194V2.9l3.2,1.65h6.7l1.65-1.8Zm-12.55.45v13.5h7.8V6.05Zm7.8,28.55V21.05h-7.8V34.6Zm29.86-12.5s2.45,1.9,3.9,3.35c0,.55-.6.8-1.3.8h-7.5V41c0,2.45-.45,4-4.75,4.4a2.37,2.37,0,0,0-1.15-2c-.75-.55-2.05-.85-4.36-1.15v-.9s5.36.4,6.36.4,1.25-.25,1.25-1V26.25H208.28l-.4-1.45h18.86V19l4.4.5c-.1.7-.6,1.1-1.75,1.3v4h2.8ZM220.68,7.5V0l4.46.55c-.1.7-.6,1.2-1.8,1.4V7.5h7.15l2.15-2.65s2.45,1.9,4,3.35c-.15.55-.65.8-1.35.8h-12v7.35h6.45l2.15-2.7s2.5,1.95,4.05,3.4a1.2,1.2,0,0,1-1.3.8H211.48l-.4-1.5h9.6V9H209.43l-.35-1.5Zm-8.4,20.65c10.51,4.2,8.21,11,5,8.8-.55-2.8-3.3-6.35-5.5-8.4Z"/><path class="cls-1" d="M3,89a3.47,3.47,0,0,1-1.3,2.83c-.54.39-1.37.46-1.63-.06s.1-.91.57-1.19A3.72,3.72,0,0,0,2.3,87.07h.46A8.15,8.15,0,0,1,3,88.26H20.44l.94-1L23.1,89a1.54,1.54,0,0,1-1,.24,17.62,17.62,0,0,1-2.31,2.34l-.39-.21a22.54,22.54,0,0,0,1-2.34Zm17,4.08c-.21.23-.42.26-.94,0a32.68,32.68,0,0,1-4.49,1.56c1.69,2.55,4.94,4.16,8.63,4.86v.29a1.6,1.6,0,0,0-1.2,1.27c-3.64-1.17-6.39-3.15-7.9-6.24-.42.1-.81.21-1.17.28,1.09,2.37.81,4.79-.16,5.75a3,3,0,0,1-2.47.81,1,1,0,0,0-.49-.89,7,7,0,0,0-2-.49v-.42c.94,0,2.73.13,3.31.13a.71.71,0,0,0,.57-.18,4,4,0,0,0,.39-3.38A36.09,36.09,0,0,1,.37,101.13l-.13-.46a33,33,0,0,0,11.44-5.49,7.75,7.75,0,0,0-.49-1A34.86,34.86,0,0,1,1.13,97.86l-.19-.5a28.89,28.89,0,0,0,9.55-4.21c-.21-.26-.45-.49-.68-.73A37.74,37.74,0,0,1,.92,95l-.21-.5a36.45,36.45,0,0,0,8.63-3.09H4.53l-.21-.75H16.13l1-1.2S18.25,90.32,19,91a.64.64,0,0,1-.68.42H11.73a11.72,11.72,0,0,1-1.35.73,9.45,9.45,0,0,1,2.29,2.55,35,35,0,0,0,5.69-2.89ZM.5,81.76.27,81H19.72l1.19-1.45a26.1,26.1,0,0,1,2.16,1.82c-.08.28-.29.41-.65.41ZM17,87.46v-.68H6.43v.42c0,.13-.65.41-1.2.41H5V82.49l1.53.73h10.2l.81-.83,1.79,1.35a1.78,1.78,0,0,1-1,.44V87a1.78,1.78,0,0,1-1.2.5ZM17,86V84H6.43v2ZM9.91,77.92c4.48.62,3.54,3.66,2.06,2.8a5.6,5.6,0,0,0-2.32-2.54Z"/><path class="cls-1" d="M33.24,81.71H28l-.18-.78h5.33l-.39-2.83,2.13.21c0,.28-.23.52-.75.67l.28,2H36.6l1-1.3s1.17.94,1.92,1.67c-.07.28-.31.41-.67.41H34.54l.31,2a1.76,1.76,0,0,1-1.3.39Zm-.68,8.19h-4l-.21-.78h4.24V86.24l2.08.26c0,.33-.29.54-.86.65v2h1.43l1-1.22A17.59,17.59,0,0,1,38,89.49c0,.28-.31.41-.62.41H33.78v2.34c0,.18-.52.47-1,.47h-.26Zm16.25,2.34s1.22.91,2,1.61a.63.63,0,0,1-.67.42H40.33v2.89h6.58l1.17-1.38a26.25,26.25,0,0,1,2.08,1.74.63.63,0,0,1-.67.42H40.33v3.25a1.36,1.36,0,0,1-1.17.49H39V97.94H29.8l-.23-.78H39V94.27H29l-.23-.78H39V85.35H29.49l-.23-.78H47.2l1-1.19q1,.74,1.92,1.56c-.08.28-.31.41-.67.41H40.33v8.14h7.44Zm.83-12.61s1.17.94,1.93,1.67c-.08.28-.32.41-.68.41h-5.8L44.7,83.9a1.94,1.94,0,0,1-1.3.1l.39-2.29h-3.3l-.21-.78H43.9l.49-2.88,2.13.46c-.1.34-.36.6-1,.6l-.33,1.82h3.4Zm-.47,8.3a17.48,17.48,0,0,1,1.77,1.56c0,.28-.31.41-.62.41h-4.5v2.29c0,.18-.55.49-1,.49h-.26V89.9h-3l-.21-.78h3.23V86.24l2.08.26c0,.33-.29.54-.86.65v2h2.39Z"/><path class="cls-1" d="M58.92,82.57a3.1,3.1,0,0,1-1.3,2.7c-.54.37-1.32.45-1.58,0s.08-.86.54-1.12a3.38,3.38,0,0,0,1.56-3.3h.5c.09.33.17.66.23,1h8V80.18H59.24L59,79.4H73.61l1.07-1.28s1.2.91,2,1.64c-.06.29-.32.42-.68.42H68.23v1.61h8.89l.94-1,1.79,1.69c-.2.21-.52.23-1,.26a15,15,0,0,1-2.11,2.39L76.37,85a23,23,0,0,0,.83-2.42h-9v5A1.38,1.38,0,0,1,67,88h-.21V82.57ZM62.69,99l4-.65.08.44c-2.14.62-5.1,1.43-9.18,2.44a.87.87,0,0,1-.55.57L56,100a16.63,16.63,0,0,0,2.1-.29V95l2,.21c-.06.31-.24.52-.76.6v3.64l2-.29V93H59.57v.34a1.62,1.62,0,0,1-1.09.39h-.21V88.06l1.43.65h4.45l.78-.81,1.72,1.33a1.72,1.72,0,0,1-1,.44V93c0,.16-.67.49-1.11.49h-.21V93H62.69v2.1h1l.85-1.1s1,.78,1.66,1.4c0,.29-.28.42-.65.42H62.69ZM59,86.44c1.23-.1,4-.46,6.66-.85l.08.44c-1.25.36-3,.88-5.36,1.51a.81.81,0,0,1-.57.54Zm5.31,5.78V89.49H59.57v2.73Zm-4.53-9c5.7-.13,5.93,2.24,4.61,2.06a17.72,17.72,0,0,0-4.74-1.62Zm17.74,6.22c-.21.23-.5.31-1.1.31a15,15,0,0,1-3,3.17,22.5,22.5,0,0,0,5.75,1.69v.29a1.2,1.2,0,0,0-1.06,1c-.73-.18-1.41-.39-2.08-.62l1.06.83a1.21,1.21,0,0,1-.83.41V101c0,.19-.7.5-1.14.5h-.21v-.94H69.35v.6a1.32,1.32,0,0,1-1.09.49h-.18V95.88c-.55.21-1.1.39-1.67.57L66.15,96a21.5,21.5,0,0,0,5.46-2.94,10.26,10.26,0,0,1-2.47-2.62,13.23,13.23,0,0,1-2.88,3l-.37-.26a18.14,18.14,0,0,0,3.54-5.87l2.08.49c-.11.29-.31.39-.94.37-.13.23-.26.49-.39.75h4.89l1-.86ZM75.28,95.1a16.07,16.07,0,0,1-2.84-1.43,17.23,17.23,0,0,1-3.27,1.77l.52.23h5ZM69.4,85.74c6.79.26,6.94,2.6,5.57,2.42a35,35,0,0,0-5.7-2Zm6.06-1.48c-.16.1-.36.08-.62-.16a45.74,45.74,0,0,1-5.41,1.17l-.11-.39a43.63,43.63,0,0,0,5.26-2.15Zm-.57,15.52V96.45H69.35v3.33ZM69.51,90a8.9,8.9,0,0,0,2.88,2.47,13.38,13.38,0,0,0,2.5-2.76H69.71Z"/><path class="cls-1" d="M107,87.77a1.54,1.54,0,0,1-1,.23,14.28,14.28,0,0,1-2.37,2.42l-.36-.18a23.56,23.56,0,0,0,1-2.44h-17A3.87,3.87,0,0,1,86,90.71c-.52.41-1.32.54-1.64.1s.06-.88.52-1.22a4.38,4.38,0,0,0,1.69-3.33,9.4,9.4,0,0,1-.88.34l-.31-.39c4.42-1.9,4.42-4.6,4.47-8.14l2.11.21c0,.29-.24.55-.76.62a18.9,18.9,0,0,1-.2,2.71,23.2,23.2,0,0,0,2.84-2.5l1.53,1.61a1,1,0,0,1-1.12,0,18.51,18.51,0,0,1-3.48,1.8l-.11.28c4.81.91,4.45,3.85,2.92,3.23a9.09,9.09,0,0,0-3.15-2.76,6.67,6.67,0,0,1-3.3,2.81,5.94,5.94,0,0,1,.15.94h17l1-1ZM85.34,79.61c4.63,1,3.9,3.92,2.47,3.14a7.08,7.08,0,0,0-2.73-2.88Zm17.45,15.15,1.87,1.43a2.09,2.09,0,0,1-1.09.52v4.35a2.1,2.1,0,0,1-1.17.46h-.21v-1H88.64v.65c0,.13-.62.46-1.17.46h-.21V95l1.51.7h4.58c.21-.57.41-1.25.57-1.82H90.49v.57c0,.13-.63.42-1.17.42h-.21v-6l1.51.68h9.72l.81-.83,1.79,1.35a1.76,1.76,0,0,1-1,.47v3.59c0,.15-.7.49-1.17.49h-.2v-.83H95.51c-.34.6-.78,1.27-1.15,1.82h7.57Zm-.6,5V96.43H88.64v3.33Zm-11.7-6.71h10.09V90.37H90.49Zm4.21-6.53c5-2,5.07-4.78,5.12-8.47l2.13.23c0,.29-.23.55-.75.62a17.14,17.14,0,0,1-.31,2.86,21.15,21.15,0,0,0,2.83-2.52l1.56,1.61a1,1,0,0,1-1.14,0,20.5,20.5,0,0,1-3.51,1.82v.11c5.4,1.27,5.07,4.18,3.48,3.59a14.38,14.38,0,0,0-3.72-3.05C99.56,84.75,98,86,95,86.94Zm.55-6.78c4.34,1.19,3.45,4,2.1,3.17A6.42,6.42,0,0,0,95,80Z"/><path class="cls-1" d="M113.48,89.82a1.54,1.54,0,1,1,1.41,1.41A1.53,1.53,0,0,1,113.48,89.82Z"/><path class="cls-1" d="M138.22,89.72l1.69,1.4c-.13.19-.44.32-1,.37-.21,5.2-.76,8.34-1.75,9.31a3.58,3.58,0,0,1-2.36.8,1,1,0,0,0-.42-.93,6.61,6.61,0,0,0-2.13-.58v-.46c1,.1,2.6.26,3.12.26s.7-.06.91-.29c.67-.6,1.11-3.54,1.35-8.24h-6c-.47,3.69-1.59,7.75-4.89,10.42l-.39-.39c3.41-3.45,4-9.12,4.16-13.54l2.21.26c-.05.31-.26.57-.83.65,0,.57-.11,1.19-.16,1.82h5.62Zm-8.39-1.59a1.27,1.27,0,0,1-1.15.52h-.21V79.14l1.69.73h7.1l.81-.86,1.82,1.38a2.09,2.09,0,0,1-1,.49v6.79a1.72,1.72,0,0,1-1.15.49h-.2v-1h-7.67Zm0-7.48v5.72h7.67V80.65Zm13.83,15.41c0,.21-.57.58-1.09.58h-.26V80.33l2.28.26c0,.37-.28.65-.93.73Zm6.19-17.21c-.08.37-.32.63-.94.7V99.39c0,1.28-.29,2.08-2.52,2.34a1.58,1.58,0,0,0-.6-1,6,6,0,0,0-2.37-.62v-.44s2.86.23,3.41.23.68-.18.68-.6V78.57Z"/><path class="cls-1" d="M176,98.82s1.38,1.07,2.21,1.85c0,.28-.31.41-.67.41H154.81l-.21-.73h11.13v-3.3h-8l-.21-.75h8.24V93.91l2.26.26c-.05.33-.28.57-.85.67V96.3h5.43l1.14-1.43s1.33,1,2.16,1.79c-.08.26-.34.39-.7.39h-8v3.3h7.69Zm-21.34-6c1.14-.08,3.07-.26,5.38-.52V89.88h-4.52l-.21-.76h4.73V86.86h-2.81v.78a1.35,1.35,0,0,1-1.12.47h-.2V78.88l1.63.75h6.58l.83-.93,1.88,1.45a2.24,2.24,0,0,1-1.12.5V87.2a1.69,1.69,0,0,1-1.15.52h-.18v-.86h-3v2.26H164l1-1.3s1.17.94,1.93,1.67c-.08.26-.31.39-.68.39h-4.91v2.23c1.82-.21,3.82-.44,5.87-.7v.49c-2.63.58-6.24,1.3-11.13,2.21a1.1,1.1,0,0,1-.62.58Zm2.57-12.4v2.44h2.81V80.39Zm2.81,5.69v-2.5h-2.81v2.5Zm1.38-5.69v2.44h3V80.39Zm3,5.69v-2.5h-3v2.5Zm2.84-5.69-.24-.76h7.72l1-1,1.71,1.66a2,2,0,0,1-1.06.24,36.23,36.23,0,0,1-3.85,2.26c.94.81,1.07,1.66.78,2.11h2.26l.94-1,1.77,1.69c-.21.21-.52.21-1,.24a23.05,23.05,0,0,1-3.15,2.94l-.39-.21a24,24,0,0,0,1.77-2.91H172.6V92c0,1.19-.26,2-2.13,2.23a1.61,1.61,0,0,0-.42-1,4,4,0,0,0-1.79-.52v-.39s2,.16,2.49.16.47-.13.47-.44V85.72H167l-.24-.78h5.51a8.66,8.66,0,0,0-3.51-3.41l.26-.26a8.86,8.86,0,0,1,3.05,1.17c.75-.62,1.61-1.4,2.28-2Z"/><path class="cls-1" d="M195.71,84.91c2.37,5.2,6.71,10,10.84,12.17l-.08.28a1.71,1.71,0,0,0-1.5,1.15c-4-2.73-7.65-7.57-9.78-13.44v16.06c0,.24-.6.6-1.12.6h-.28V86.24a31.3,31.3,0,0,1-10.87,13l-.37-.39a33.87,33.87,0,0,0,10-13.94h-9.44l-.23-.78h10.87V78l2.34.29c-.06.36-.26.62-.94.72v5.1h7.51l1.23-1.53s1.4,1.06,2.29,1.89c-.08.29-.34.42-.71.42Z"/><path class="cls-1" d="M214.86,85.46c0,4.81-.32,11.44-4.19,16.22l-.44-.26c2.88-4.81,3.22-10.63,3.22-16V78.75l1.69.75H230.3l.86-.88,1.9,1.43a2.36,2.36,0,0,1-1.12.52V85a1.82,1.82,0,0,1-1.17.47h-.21v-.94h-15.7ZM232,98.51s1.3,1,2.13,1.79c-.08.29-.34.42-.7.42H213.82l-.24-.78h9.21V96.61H215.9l-.19-.75h7.08V92.92l2.23.26c-.05.34-.28.57-.86.67v2h4.55l1.07-1.36s1.27,1,2,1.69a.59.59,0,0,1-.65.42h-7v3.33h6.66ZM214.86,80.28v3.51h15.7V80.28Zm9.3,7.62a41.18,41.18,0,0,1-6,3.87c2.62,0,6.58-.18,10.84-.31a20.39,20.39,0,0,0-3.28-2l.24-.34c7.33,1.59,7.2,5.44,5.35,4.68a6.74,6.74,0,0,0-1.69-1.8c-3,.37-7.38.78-12.37,1.17a1,1,0,0,1-.52.42l-.65-1.85a4.29,4.29,0,0,0,.6-.13A20.14,20.14,0,0,0,222,87.9h-6.35l-.23-.78h14.3l1.17-1.27A23.72,23.72,0,0,1,233,87.48c-.08.29-.29.42-.65.42Z"/><path class="cls-1" d="M240.5,89.82a1.54,1.54,0,1,1,1.41,1.41A1.54,1.54,0,0,1,240.5,89.82Z"/><path class="cls-1" d="M274.78,85.61a2.16,2.16,0,0,1-1.12.5v7.43a1.78,1.78,0,0,1-1.2.5h-.21V92.61H258c-.37,3.35-1.48,6.73-4.71,9.2l-.36-.34c3.33-3.43,3.82-7.82,3.82-12.48v-8.6l1.9.67a56.56,56.56,0,0,0,12.89-3l1.82,1.63c-.2.21-.67.21-1.27,0a70.58,70.58,0,0,1-13.94,2V85.1H272l.86-1Zm-2.53,6.22v-6h-14V89a27.72,27.72,0,0,1-.1,2.86Z"/><path class="cls-1" d="M293.24,81.63l1.69,1.62a1.58,1.58,0,0,1-1,.33c-1.35,7.41-4.11,14.28-12.24,18.13l-.29-.42c6.86-3.87,9.85-10.45,11.05-17.91h-5.2a25.46,25.46,0,0,1-1.82,3.84c5.72,1.93,4.89,5.46,3.22,4.42a10.5,10.5,0,0,0-3.48-4,17.76,17.76,0,0,1-3.5,4.36l-.37-.26a29.87,29.87,0,0,0,5.83-13.57l2.36.6a.85.85,0,0,1-1,.54,31.54,31.54,0,0,1-1,3.31h4.78Zm5.2,4.84c7.95,2.91,7.41,7.1,5.43,6.06-.83-1.77-3.35-4-5.43-5.49v14.2c0,.26-.6.57-1.12.57H297V78.41l2.32.29c-.06.36-.26.62-.91.72Z"/><path class="cls-1" d="M311.28,87.41a3.38,3.38,0,0,1-.57,1.92c-.31.36-1,.55-1.28.16a.92.92,0,0,1,.34-1.17,3.48,3.48,0,0,0,.83-2.45h.47a3.7,3.7,0,0,1,.16.75h.49V79l1.54.7h3.43l.78-1,1.95,1.46a1.59,1.59,0,0,1-1.2.47v6h.26l.78-.83,1.51,1.48V80.15l1.56.73H324V78.05l2,.23c-.06.34-.32.57-.86.68v1.92H327V78.05l2,.23c0,.34-.28.57-.85.68v1.92h2l.67-.81,1.59,1.25a1.38,1.38,0,0,1-.91.42v6.42a1.56,1.56,0,0,1-.36.29,17.44,17.44,0,0,1,1.74,1.48c0,.28-.31.41-.63.41H319.94l-.21-.78h10.43l.85-1a1.45,1.45,0,0,1-.54.11h-.18V88H322v.47c0,.13-.44.44-1.09.44h-.18V87.35a1.73,1.73,0,0,1-.94.21,12.93,12.93,0,0,1-1.3,1.72l-.39-.18c.08-.37.29-1.1.42-1.69ZM319,90a1.6,1.6,0,0,1-1,.46v9.39c0,1-.21,1.64-2,1.79a1.12,1.12,0,0,0-.39-.72,4.42,4.42,0,0,0-1.67-.42v-.42s1.85.16,2.26.16.52-.16.52-.49V95.13c-.72.47-1.63,1.09-2.73,1.74a.8.8,0,0,1-.41.62L312.87,96a7.86,7.86,0,0,1-3.07,5.8l-.37-.37c2-2.21,2.24-4.94,2.24-7.69v-5l1.59.73h3.35l.68-.78Zm-6,3.67a17,17,0,0,1-.1,2.24c.8-.24,2.36-.76,4-1.35V90.29H313v1.64c4.32-.1,4,2,2.81,1.74A22.51,22.51,0,0,0,313,92.45Zm0-7h1.46v-4.6l1.48.7H317V80.49H313Zm4.06,0V83.53h-1.56v3.12Zm14.14,11.86c.69.54,1.36,1.11,2,1.72-.05.29-.31.42-.65.42H319.24l-.21-.78h7.62A23.3,23.3,0,0,0,328,96.58l.91.29v-.52h-6.05v.34c3.38,1.66,1.95,4,.78,2.94a9.66,9.66,0,0,0-1-2.58,2,2,0,0,1-.89.21h-.2V91.05l1.61.7h5.69l.68-.78,1.61,1.22a1.45,1.45,0,0,1-.88.39v4a1.5,1.5,0,0,1-.86.45l.65.23a.86.86,0,0,1-1,.44,21.26,21.26,0,0,1-1.69,2.19h2.73ZM322,81.66V84h2V81.66Zm2,3h-2v2.47h2ZM329,95.53v-3h-6v3Zm-3.79-13.91V84H327V81.66Zm0,5.51H327V84.7H325.1Zm3.07-5.51V84h2.08V81.66Zm2.08,5.51V84.7h-2.08v2.47Z"/><path class="cls-1" d="M339.07,93.93c1.28,7.15-2.86,6.4-1.71,4.55.78-.8,1.22-2.39,1.27-4.57Zm9.08-2.81a1.79,1.79,0,0,1-1,.34c-.2,5.51-.8,8.43-1.79,9.34a3.24,3.24,0,0,1-2.26.78,1.31,1.31,0,0,0-.34-1,6.24,6.24,0,0,0-1.74-.47v-.49c.78.07,2.13.2,2.6.2a1.13,1.13,0,0,0,.88-.26c.65-.59,1.12-3.27,1.38-8.21H340v.86a1.37,1.37,0,0,1-1.12.46h-.18V79.11l1.61.76h4.84l1.09-1.28s1.2.91,2,1.64c-.08.26-.31.39-.68.39h-3.79v2.76h1.22l1-1.17a23.23,23.23,0,0,1,1.76,1.53c-.05.29-.28.39-.65.39h-3.32v2.81h1.09l1-1.2s1.09.86,1.79,1.54c0,.28-.31.41-.68.41h-3.19v2.89h1.95l.78-.91,1.74,1.4V86.91l1.53.7H352l.65-.8L354.13,88a1.57,1.57,0,0,1-.89.39v4.89a1.55,1.55,0,0,1-1.11.44H352v-1h-2.6v.65c0,.13-.42.47-1,.47h-.18Zm-7.85,2.6c2.31,3.28.8,6-.16,4.74a11.48,11.48,0,0,0-.23-4.63Zm-.37-13.1v2.76h2.45V80.62Zm2.45,3.51h-2.45v2.81h2.45Zm-2.45,6.45h2.45V87.69h-2.45Zm1.77,2.75c3.12,2.53,1.87,5,.83,3.93a9,9,0,0,0-1.19-3.77Zm1.46-.52c3.48,1.36,2.41,3.85,1.3,2.92A5.82,5.82,0,0,0,342.87,93Zm9.51,2.08c-.1.26-.31.39-.91.37a19.53,19.53,0,0,1-.78,1.82c3.56,1,2.71,3.48,1.35,2.68a4.5,4.5,0,0,0-1.63-2.21,10.93,10.93,0,0,1-4,4.18l-.21-.39a12.64,12.64,0,0,0,3.95-7.15Zm2.91-16.12c-.07.24-.28.37-.91.42a15.49,15.49,0,0,0,6.89,5.25l-.05.34a1.86,1.86,0,0,0-1.09,1.4,15.7,15.7,0,0,1-6.08-6.73A19.9,19.9,0,0,1,347,86.52l-.18-.34a20.58,20.58,0,0,0,6.34-8Zm-6.21,9.6V92H352V88.37Zm6.76-4.71c.57.46,1.12,1,1.64,1.46,0,.28-.26.41-.63.41h-6.68l-.18-.78h5ZM358.81,95c-.13.26-.34.39-1,.34a14.93,14.93,0,0,1-1,2c5.36,1.9,4.68,5,3.15,4.11a12.46,12.46,0,0,0-3.41-3.64,12.74,12.74,0,0,1-3.66,3.9l-.29-.36a15.89,15.89,0,0,0,4-7.18Zm-.39-1.22v-1h-2.6v.65c0,.13-.39.47-1.07.47h-.18v-7l1.56.72h2.21l.68-.8L360.6,88a1.65,1.65,0,0,1-.91.39v4.89a1.41,1.41,0,0,1-1.09.44Zm0-1.74V88.37h-2.6V92Z"/></g></g></g></g></g></g></svg>