<svg xmlns="http://www.w3.org/2000/svg" viewBox="0 0 361.54 101.81"><defs><style>.cls-1{isolation:isolate;}.cls-2{fill:snow;}</style></defs><g id="圖層_2" data-name="圖層 2"><g id="圖層_1-2" data-name="圖層 1"><g id="圖層_2-2" data-name="圖層 2"><g id="圖層_1-2-2" data-name="圖層 1-2"><g class="cls-1"><g class="cls-1"><path class="cls-2" d="M167,5.35a4.3,4.3,0,0,1-2.2,1v36.9c-.05.35-1.35,1-2.25,1h-.4V38.8H128v5.4c0,.4-.95,1.1-2.15,1.1h-.5V2.8l2.9,1.5h33.41l1.65-1.9ZM162.12,37.3V28.45a29.91,29.91,0,0,1-5.65.3h-3.95c-3.15,0-3.75-.8-3.75-2.85V5.8h-7.51C141,17.4,140.41,26,130.31,32l-.7-.85c8.5-6.05,8.8-14.45,8.9-25.3H128V37.3ZM151.37,5.8V25.3c0,.75.2,1.05,1.65,1.05h3.65c1.5,0,2.9-.05,3.45-.05a3.8,3.8,0,0,1,.7-.05,6.43,6.43,0,0,0,1-.2h.35V5.8Z"/><path class="cls-2" d="M209.16,5.6a3.73,3.73,0,0,1-2.15,1V38.2c0,.35-1.3,1-2.2,1h-.4v-3.2h-7.8V40.4c0,.25-.9,1-2.2,1H194V2.9l3.2,1.65h6.7l1.65-1.8Zm-12.55.45v13.5h7.8V6.05Zm7.8,28.55V21.05h-7.8V34.6Zm29.86-12.5s2.45,1.9,3.9,3.35c0,.55-.6.8-1.3.8h-7.5V41c0,2.45-.45,3.95-4.75,4.4a2.36,2.36,0,0,0-1.15-2c-.75-.55-2.05-.85-4.36-1.15v-.9s5.36.4,6.36.4,1.25-.25,1.25-1V26.25H208.26l-.4-1.45h18.86V19l4.4.5c-.1.7-.6,1.1-1.75,1.3V24.8h2.8ZM220.66,7.5V0l4.46.55c-.1.7-.6,1.2-1.8,1.4V7.5h7.15l2.15-2.65s2.45,1.9,4,3.35c-.15.55-.65.8-1.35.8h-12v7.35h6.45l2.15-2.7s2.5,1.95,4.05,3.4a1.2,1.2,0,0,1-1.3.8H211.46l-.4-1.5h9.6V9H209.41l-.35-1.5Zm-8.4,20.65c10.51,4.2,8.21,11,5,8.8-.55-2.8-3.3-6.35-5.5-8.4Z"/></g><g class="cls-1"><path class="cls-2" d="M3,89A3.46,3.46,0,0,1,1.7,91.83c-.54.39-1.37.46-1.63-.06s.1-.91.57-1.19a3.71,3.71,0,0,0,1.64-3.51l.46,0A7.65,7.65,0,0,1,3,88.26H20.42l.94-1L23.08,89a1.56,1.56,0,0,1-1,.24,17,17,0,0,1-2.31,2.34l-.39-.21c.31-.63.73-1.56,1-2.34Zm17,4.08c-.21.23-.42.26-.94.05a32.26,32.26,0,0,1-4.49,1.56c1.69,2.55,4.94,4.16,8.63,4.86l0,.29A1.59,1.59,0,0,0,22,101.11c-3.64-1.17-6.39-3.15-7.9-6.24-.42.1-.81.21-1.17.28,1.09,2.37.81,4.79-.16,5.75a3,3,0,0,1-2.47.81,1,1,0,0,0-.49-.89,6.85,6.85,0,0,0-2-.49v-.42c.94,0,2.73.13,3.31.13a.68.68,0,0,0,.57-.18,3.92,3.92,0,0,0,.39-3.38A36,36,0,0,1,.35,101.13l-.13-.46a32.92,32.92,0,0,0,11.44-5.49c-.15-.36-.31-.7-.49-1A35,35,0,0,1,1.11,97.86l-.19-.5a28.9,28.9,0,0,0,9.55-4.21c-.21-.26-.45-.49-.68-.73A37.49,37.49,0,0,1,.9,95L.69,94.5a36.66,36.66,0,0,0,8.63-3.09H4.51l-.21-.75H16.11l1-1.2s1.12.86,1.85,1.53a.63.63,0,0,1-.68.42H11.71a10.84,10.84,0,0,1-1.35.73,9.37,9.37,0,0,1,2.29,2.55,34.44,34.44,0,0,0,5.69-2.89ZM.48,81.76.25,81H19.7l1.19-1.45s1.33,1,2.16,1.82c-.08.28-.29.41-.65.41ZM17,87.46v-.68H6.41v.42c0,.13-.65.41-1.2.41H5V82.49l1.53.73H16.73l.81-.83,1.79,1.35a1.82,1.82,0,0,1-1,.44V87a1.77,1.77,0,0,1-1.2.5ZM17,86V84H6.41v2ZM9.89,77.92c4.48.62,3.54,3.66,2.06,2.8a5.65,5.65,0,0,0-2.32-2.54Z"/><path class="cls-2" d="M33.22,81.71H28l-.18-.78h5.33l-.39-2.83,2.13.21c-.05.28-.23.52-.75.67l.28,2h2.16l1-1.3s1.17.94,1.92,1.67c-.07.28-.31.41-.67.41H34.52l.31,2a1.78,1.78,0,0,1-1.3.39Zm-.68,8.19h-4l-.21-.78h4.24V86.24l2.08.26c0,.33-.29.54-.86.65v2h1.43l1-1.22A16.61,16.61,0,0,1,38,89.49c0,.28-.31.41-.62.41H33.76v2.34c0,.18-.52.47-1,.47h-.26Zm16.25,2.34s1.22.91,2,1.61a.62.62,0,0,1-.67.42H40.31v2.89h6.58l1.17-1.38a26.13,26.13,0,0,1,2.08,1.74.62.62,0,0,1-.67.42H40.31v3.25a1.36,1.36,0,0,1-1.17.49h-.2V97.94H29.78l-.23-.78h9.39V94.27h-10l-.23-.78H38.94V85.35H29.47l-.23-.78H47.18l1-1.19a23.59,23.59,0,0,1,1.92,1.56c-.08.28-.31.41-.67.41H40.31v8.14h7.44Zm.83-12.61s1.17.94,1.93,1.67c-.08.28-.32.41-.68.41h-5.8l-.39,2.19a1.92,1.92,0,0,1-1.3.1l.39-2.29h-3.3l-.21-.78h3.62l.49-2.88,2.13.46c-.1.34-.36.6-1,.6l-.33,1.82h3.4Zm-.47,8.3a16.39,16.39,0,0,1,1.77,1.56c-.05.28-.31.41-.62.41H45.8v2.29c0,.18-.55.49-1,.49h-.26V89.9h-3l-.21-.78h3.23V86.24l2.08.26c0,.33-.29.54-.86.65v2h2.39Z"/><path class="cls-2" d="M58.9,82.57a3.1,3.1,0,0,1-1.3,2.7c-.54.37-1.32.45-1.58,0s.08-.86.54-1.12a3.38,3.38,0,0,0,1.56-3.3l.5,0a8.08,8.08,0,0,1,.23,1h8V80.18H59.22L59,79.4H73.59l1.07-1.28s1.2.91,2,1.64c-.06.29-.32.42-.68.42H68.21v1.61H77.1l.94-1,1.79,1.69c-.2.21-.52.23-1,.26a14.4,14.4,0,0,1-2.11,2.39L76.35,85a22.72,22.72,0,0,0,.83-2.42h-9v5A1.37,1.37,0,0,1,67,88h-.21V82.57ZM62.67,99l4-.65.08.44c-2.14.62-5.1,1.43-9.18,2.44a.85.85,0,0,1-.55.57l-1-1.84c.54,0,1.27-.16,2.1-.29V95l2,.21c-.06.31-.24.52-.76.6v3.64l2-.29V93H59.55v.34a1.62,1.62,0,0,1-1.09.39h-.21V88.06l1.43.65h4.45l.78-.81,1.72,1.33a1.69,1.69,0,0,1-1,.44V93c0,.16-.67.49-1.11.49h-.21V93H62.67V95.1h1L64.52,94s1,.78,1.66,1.4c-.05.29-.28.42-.65.42H62.67ZM59,86.44c1.23-.1,4-.46,6.66-.85l.08.44c-1.25.36-3,.88-5.36,1.51a.8.8,0,0,1-.57.54Zm5.31,5.78V89.49H59.55v2.73Zm-4.53-9c5.7-.13,5.93,2.24,4.61,2.06a17.77,17.77,0,0,0-4.74-1.62Zm17.74,6.22c-.21.23-.5.31-1.1.31a15.1,15.1,0,0,1-3,3.17,22.58,22.58,0,0,0,5.75,1.69l0,.29a1.2,1.2,0,0,0-1.06,1c-.73-.18-1.41-.39-2.08-.62l1.06.83a1.18,1.18,0,0,1-.83.41V101c0,.19-.7.5-1.14.5h-.21v-.94H69.33v.6a1.31,1.31,0,0,1-1.09.49h-.18V95.88c-.55.21-1.1.39-1.67.57L66.13,96a21.64,21.64,0,0,0,5.46-2.94,10.26,10.26,0,0,1-2.47-2.62,13.13,13.13,0,0,1-2.88,3l-.37-.26a18,18,0,0,0,3.54-5.87l2.08.49c-.11.29-.31.39-.94.37-.13.23-.26.49-.39.75h4.89l1-.86ZM75.26,95.1a16.39,16.39,0,0,1-2.84-1.43,17.3,17.3,0,0,1-3.27,1.77l.52.23h5Zm-5.88-9.36c6.79.26,6.94,2.6,5.57,2.42a34.93,34.93,0,0,0-5.7-2Zm6.06-1.48c-.16.1-.36.08-.62-.16a44.4,44.4,0,0,1-5.41,1.17l-.11-.39a42.83,42.83,0,0,0,5.26-2.15Zm-.57,15.52V96.45H69.33v3.33ZM69.49,90a9.11,9.11,0,0,0,2.88,2.47,13.33,13.33,0,0,0,2.5-2.76H69.69Z"/></g><g class="cls-1"><path class="cls-2" d="M107,87.77a1.56,1.56,0,0,1-1,.23,13.91,13.91,0,0,1-2.37,2.42l-.36-.18a24,24,0,0,0,1-2.44h-17A3.86,3.86,0,0,1,86,90.71c-.52.41-1.32.54-1.64.1s.06-.88.52-1.22a4.35,4.35,0,0,0,1.69-3.33,7.65,7.65,0,0,1-.88.34l-.31-.39c4.42-1.9,4.42-4.6,4.47-8.14l2.11.21c0,.29-.24.55-.76.62A18,18,0,0,1,91,81.61a22.21,22.21,0,0,0,2.84-2.5l1.53,1.61a1,1,0,0,1-1.12,0,18.36,18.36,0,0,1-3.48,1.8l-.11.28c4.81.91,4.45,3.85,2.92,3.23a9,9,0,0,0-3.15-2.76,6.63,6.63,0,0,1-3.3,2.81,5.39,5.39,0,0,1,.15.94h17l1-1ZM85.32,79.61c4.63,1,3.9,3.92,2.47,3.14a7,7,0,0,0-2.73-2.88Zm17.45,15.15,1.87,1.43a2.09,2.09,0,0,1-1.09.52v4.35a2.06,2.06,0,0,1-1.17.46h-.21v-1H88.62v.65c0,.13-.62.46-1.17.46h-.21V95l1.51.7h4.58c.21-.57.41-1.25.57-1.82H90.47v.57c0,.13-.63.42-1.17.42h-.21V88.91l1.51.68h9.72l.81-.83,1.79,1.35a1.75,1.75,0,0,1-1,.47v3.59c0,.15-.7.49-1.17.49h-.2v-.83H95.49c-.34.6-.78,1.27-1.15,1.82h7.57Zm-.6,5V96.43H88.62v3.33Zm-11.7-6.71h10.09V90.37H90.47Zm4.21-6.53c5-2,5.07-4.78,5.12-8.47l2.13.23c0,.29-.23.55-.75.62a16.48,16.48,0,0,1-.31,2.86,20.68,20.68,0,0,0,2.83-2.52l1.56,1.61a1,1,0,0,1-1.14,0,20.34,20.34,0,0,1-3.51,1.82l0,.11c5.4,1.27,5.07,4.18,3.48,3.59a14.14,14.14,0,0,0-3.72-3.05C99.54,84.75,98,86,95,86.94Zm.55-6.78c4.34,1.19,3.45,4,2.1,3.17A6.35,6.35,0,0,0,94.94,80Z"/><path class="cls-2" d="M108.72,89.82a1.54,1.54,0,0,1,3.07,0,1.54,1.54,0,0,1-3.07,0Z"/></g><g class="cls-1"><path class="cls-2" d="M138.2,89.72l1.69,1.4c-.13.19-.44.32-1,.37-.21,5.2-.76,8.34-1.75,9.31a3.53,3.53,0,0,1-2.36.8,1,1,0,0,0-.42-.93,6.57,6.57,0,0,0-2.13-.58l0-.46c1,.1,2.6.26,3.12.26s.7-.06.91-.29c.67-.6,1.11-3.54,1.35-8.24h-6c-.47,3.69-1.59,7.75-4.89,10.42l-.39-.39c3.41-3.45,4-9.12,4.16-13.54l2.21.26c-.05.31-.26.57-.83.65-.05.57-.11,1.19-.16,1.82h5.62Zm-8.39-1.59a1.27,1.27,0,0,1-1.15.52h-.21V79.14l1.69.73h7.1l.81-.86,1.82,1.38a2,2,0,0,1-1,.49v6.79a1.72,1.72,0,0,1-1.15.49h-.2v-1h-7.67Zm0-7.48v5.72h7.67V80.65Zm13.83,15.41c0,.21-.57.58-1.09.58h-.26V80.33l2.28.26c0,.37-.28.65-.93.73Zm6.19-17.21c-.08.37-.32.63-.94.7V99.39c0,1.28-.29,2.08-2.52,2.34a1.58,1.58,0,0,0-.6-1,6,6,0,0,0-2.37-.62v-.44s2.86.23,3.41.23.68-.18.68-.6V78.57Z"/><path class="cls-2" d="M176,98.82s1.38,1.07,2.21,1.85c-.05.28-.31.41-.67.41H154.79l-.21-.73h11.13v-3.3h-8l-.21-.75h8.24V93.91l2.26.26c-.05.33-.28.57-.85.67V96.3h5.43l1.14-1.43s1.33,1,2.16,1.79c-.08.26-.34.39-.7.39h-8v3.3h7.69Zm-21.34-6c1.14-.08,3.07-.26,5.38-.52V89.88h-4.52l-.21-.76h4.73V86.86h-2.81v.78a1.34,1.34,0,0,1-1.12.47h-.2V78.88l1.63.75h6.58l.83-.93,1.88,1.45a2.21,2.21,0,0,1-1.12.5V87.2a1.67,1.67,0,0,1-1.15.52h-.18v-.86h-3v2.26h2.62l1-1.3s1.17.94,1.93,1.67c-.08.26-.31.39-.68.39h-4.91v2.23c1.82-.21,3.82-.44,5.87-.7l0,.49c-2.63.58-6.24,1.3-11.13,2.21a1.08,1.08,0,0,1-.62.58Zm2.57-12.4v2.44h2.81V80.39Zm2.81,5.69v-2.5h-2.81v2.5Zm1.38-5.69v2.44h3V80.39Zm3,5.69v-2.5h-3v2.5Zm2.84-5.69-.24-.76h7.72l1-1,1.71,1.66a2,2,0,0,1-1.06.24,35.11,35.11,0,0,1-3.85,2.26c.94.81,1.07,1.66.78,2.11h2.26l.94-1,1.77,1.69c-.21.21-.52.21-1,.24a23.26,23.26,0,0,1-3.15,2.94l-.39-.21a23.83,23.83,0,0,0,1.77-2.91h-2.94V92c0,1.19-.26,2-2.13,2.23a1.56,1.56,0,0,0-.42-1,4,4,0,0,0-1.79-.52v-.39s2,.16,2.49.16.47-.13.47-.44V85.72H167l-.24-.78h5.51a8.62,8.62,0,0,0-3.51-3.41l.26-.26a8.81,8.81,0,0,1,3.05,1.17c.75-.62,1.61-1.4,2.28-2Z"/><path class="cls-2" d="M195.69,84.91c2.37,5.2,6.71,10,10.84,12.17l-.08.28a1.71,1.71,0,0,0-1.5,1.15c-4-2.73-7.65-7.57-9.78-13.44v16.06c0,.24-.6.6-1.12.6h-.28V86.24a31.2,31.2,0,0,1-10.87,13l-.37-.39a33.88,33.88,0,0,0,10-13.94h-9.44l-.23-.78h10.87V78l2.34.29c-.06.36-.26.62-.94.72v5.1h7.51l1.23-1.53s1.4,1.06,2.29,1.89c-.08.29-.34.42-.71.42Z"/></g><g class="cls-1"><path class="cls-2" d="M214.84,85.46c0,4.81-.32,11.44-4.19,16.22l-.44-.26c2.88-4.81,3.22-10.63,3.22-16V78.75l1.69.75h15.16l.86-.88,1.9,1.43a2.34,2.34,0,0,1-1.12.52V85a1.83,1.83,0,0,1-1.17.47h-.21v-.94h-15.7ZM232,98.51s1.3,1,2.13,1.79c-.08.29-.34.42-.7.42H213.8l-.24-.78h9.21V96.61h-6.89l-.19-.75h7.08V92.92l2.23.26c-.05.34-.28.57-.86.67v2h4.55l1.07-1.36s1.27,1,2,1.69a.59.59,0,0,1-.65.42h-7v3.33h6.66ZM214.84,80.28v3.51h15.7V80.28Zm9.3,7.62a40.71,40.71,0,0,1-6,3.87c2.62,0,6.58-.18,10.84-.31a19.25,19.25,0,0,0-3.28-2l.24-.34c7.33,1.59,7.2,5.44,5.35,4.68A6.53,6.53,0,0,0,229.6,92c-3,.37-7.38.78-12.37,1.17a1,1,0,0,1-.52.42l-.65-1.85a3.46,3.46,0,0,0,.6-.13A20.26,20.26,0,0,0,222,87.9h-6.35l-.23-.78h14.3l1.17-1.27A23.18,23.18,0,0,1,233,87.48c-.08.29-.29.42-.65.42Z"/><path class="cls-2" d="M235.48,89.82a1.54,1.54,0,0,1,3.07,0,1.54,1.54,0,0,1-3.07,0Z"/></g><g class="cls-1"><path class="cls-2" d="M274.76,85.61a2.09,2.09,0,0,1-1.12.5v7.43a1.77,1.77,0,0,1-1.2.5h-.21V92.61H258c-.37,3.35-1.48,6.73-4.71,9.2l-.36-.34c3.33-3.43,3.82-7.82,3.82-12.48v-8.6l1.9.67a56.21,56.21,0,0,0,12.89-3l1.82,1.63c-.2.21-.67.21-1.27,0a71,71,0,0,1-13.94,2v3.41H272l.86-1Zm-2.53,6.22v-6h-14V89c0,.93,0,1.89-.1,2.86Z"/><path class="cls-2" d="M293.22,81.63l1.69,1.62a1.54,1.54,0,0,1-1,.33c-1.35,7.41-4.11,14.28-12.24,18.13l-.29-.42c6.86-3.87,9.85-10.45,11.05-17.91h-5.2a24.28,24.28,0,0,1-1.82,3.84c5.72,1.93,4.89,5.46,3.22,4.42a10.36,10.36,0,0,0-3.48-4A17.41,17.41,0,0,1,281.65,92l-.37-.26a29.81,29.81,0,0,0,5.83-13.57l2.36.6a.85.85,0,0,1-1,.54,31.26,31.26,0,0,1-1,3.31h4.78Zm5.2,4.84c7.95,2.91,7.41,7.1,5.43,6.06-.83-1.77-3.35-4-5.43-5.49v14.2c0,.26-.6.57-1.12.57H297V78.41l2.32.29c-.06.36-.26.62-.91.72Z"/><path class="cls-2" d="M311.26,87.41a3.29,3.29,0,0,1-.57,1.92c-.31.36-1,.55-1.28.16a.93.93,0,0,1,.34-1.17,3.47,3.47,0,0,0,.83-2.45l.47,0a3.56,3.56,0,0,1,.16.75h.49V79l1.54.7h3.43l.78-1,1.95,1.46a1.61,1.61,0,0,1-1.2.47v6h.26l.78-.83,1.51,1.48V80.15l1.56.73H324V78.05l2,.23c-.06.34-.32.57-.86.68v1.92H327V78.05l2,.23c-.05.34-.28.57-.85.68v1.92h2l.67-.81,1.59,1.25a1.37,1.37,0,0,1-.91.42v6.42s-.16.18-.36.29a16.33,16.33,0,0,1,1.74,1.48c-.05.28-.31.41-.63.41H319.92l-.21-.78h10.43l.85-1a1.44,1.44,0,0,1-.54.11h-.18V88H322v.47c0,.13-.44.44-1.09.44h-.18V87.35a1.7,1.7,0,0,1-.94.21,12.51,12.51,0,0,1-1.3,1.72l-.39-.18c.08-.37.29-1.1.42-1.69ZM319,90a1.62,1.62,0,0,1-1,.46v9.39c0,1-.21,1.64-2,1.79a1.1,1.1,0,0,0-.39-.72,4.34,4.34,0,0,0-1.67-.42v-.42s1.85.16,2.26.16.52-.16.52-.49V95.13c-.72.47-1.63,1.09-2.73,1.74a.78.78,0,0,1-.41.62L312.85,96a7.88,7.88,0,0,1-3.07,5.8l-.37-.37c2-2.21,2.24-4.94,2.24-7.69V88.78l1.59.73h3.35l.68-.78ZM313,93.67c0,.73,0,1.48-.1,2.24.8-.24,2.36-.76,4-1.35V90.29H313v1.64c4.32-.1,4,2,2.81,1.74A22,22,0,0,0,313,92.45Zm0-7h1.46v-4.6l1.48.7H317V80.49h-4.06Zm4.06,0V83.53H315.5v3.12ZM331.2,98.53a24.63,24.63,0,0,1,2,1.72c-.05.29-.31.42-.65.42H319.22l-.21-.78h7.62A23.45,23.45,0,0,0,328,96.58l.91.29v-.52h-6.05v.34c3.38,1.66,1.95,4,.78,2.94a9.43,9.43,0,0,0-1-2.58,1.94,1.94,0,0,1-.89.21h-.2V91.05l1.61.7h5.69l.68-.78,1.61,1.22a1.44,1.44,0,0,1-.88.39v4a1.45,1.45,0,0,1-.86.45l.65.23a.86.86,0,0,1-1,.44,20.94,20.94,0,0,1-1.69,2.19h2.73ZM322,81.66V84h2V81.66Zm2,3h-2v2.47h2Zm4.94,10.87v-3h-6.05v3Zm-3.79-13.91V84H327V81.66Zm0,5.51H327V84.7h-1.92Zm3.07-5.51V84h2.08V81.66Zm2.08,5.51V84.7h-2.08v2.47Z"/><path class="cls-2" d="M339.05,93.93c1.28,7.15-2.86,6.4-1.71,4.55.78-.8,1.22-2.39,1.27-4.57Zm9.08-2.81a1.79,1.79,0,0,1-1,.34c-.2,5.51-.8,8.43-1.79,9.34a3.22,3.22,0,0,1-2.26.78,1.31,1.31,0,0,0-.34-1,6,6,0,0,0-1.74-.47v-.49c.78.07,2.13.2,2.6.2a1.11,1.11,0,0,0,.88-.26c.65-.59,1.12-3.27,1.38-8.21h-5.93v.86a1.34,1.34,0,0,1-1.12.46h-.18V79.11l1.61.76h4.84l1.09-1.28s1.2.91,2,1.64c-.08.26-.31.39-.68.39h-3.79v2.76h1.22l1-1.17a22.33,22.33,0,0,1,1.76,1.53c-.05.29-.28.39-.65.39h-3.32v2.81h1.09l1-1.2s1.09.86,1.79,1.54c0,.28-.31.41-.68.41h-3.19v2.89h1.95l.78-.91,1.74,1.4V86.91l1.53.7h2.21l.65-.8L354.11,88a1.51,1.51,0,0,1-.89.39v4.89a1.49,1.49,0,0,1-1.11.44H352v-1h-2.6v.65c0,.13-.42.47-1,.47h-.18Zm-7.85,2.6c2.31,3.28.8,6-.16,4.74a11.43,11.43,0,0,0-.23-4.63Zm-.37-13.1v2.76h2.45V80.62Zm2.45,3.51h-2.45v2.81h2.45Zm-2.45,6.45h2.45V87.69h-2.45Zm1.77,2.75c3.12,2.53,1.87,5,.83,3.93a8.92,8.92,0,0,0-1.19-3.77Zm1.46-.52c3.48,1.36,2.41,3.85,1.3,2.92A5.78,5.78,0,0,0,342.85,93Zm9.51,2.08c-.1.26-.31.39-.91.37a16.32,16.32,0,0,1-.78,1.82c3.56,1,2.71,3.48,1.35,2.68a4.49,4.49,0,0,0-1.63-2.21,10.89,10.89,0,0,1-4,4.18l-.21-.39a12.56,12.56,0,0,0,3.95-7.15Zm2.91-16.12c-.07.24-.28.37-.91.42a15.42,15.42,0,0,0,6.89,5.25l-.05.34a1.88,1.88,0,0,0-1.09,1.4,15.72,15.72,0,0,1-6.08-6.73,19.84,19.84,0,0,1-7.39,7.07l-.18-.34a20.64,20.64,0,0,0,6.34-8Zm-6.21,9.6V92H352V88.37Zm6.76-4.71a21.86,21.86,0,0,1,1.64,1.46c-.05.28-.26.41-.63.41h-6.68l-.18-.78h5ZM358.79,95c-.13.26-.34.39-1,.34a14.45,14.45,0,0,1-1,2c5.36,1.9,4.68,5,3.15,4.11a12.42,12.42,0,0,0-3.41-3.64,12.69,12.69,0,0,1-3.66,3.9l-.29-.36a15.81,15.81,0,0,0,4-7.18Zm-.39-1.22v-1h-2.6v.65c0,.13-.39.47-1.07.47h-.18v-7l1.56.72h2.21l.68-.8L360.58,88a1.58,1.58,0,0,1-.91.39v4.89a1.43,1.43,0,0,1-1.09.44Zm0-1.74V88.37h-2.6V92Z"/></g></g></g></g></g></g></svg>